<svg xmlns="http://www.w3.org/2000/svg" width="30" height="30" viewBox="0 0 30 30">
  <g id="Grupo_356" data-name="Grupo 356" transform="translate(-456 -5496)">
    <rect id="Retângulo_169" data-name="Retângulo 169" width="30" height="30" transform="translate(456 5496)" fill="none"/>
    <path id="volunteer_activism_FILL0_wght400_GRAD0_opsz48" d="M23.643,19.043q-1.679-1.5-3.2-2.929a33.42,33.42,0,0,1-2.661-2.786A15.439,15.439,0,0,1,15.964,10.7a5.18,5.18,0,0,1-.679-2.446A4.271,4.271,0,0,1,19.643,3.9a4.314,4.314,0,0,1,2.125.589,6.574,6.574,0,0,1,1.875,1.589,6.574,6.574,0,0,1,1.875-1.589A4.314,4.314,0,0,1,27.643,3.9,4.271,4.271,0,0,1,32,8.257a5.18,5.18,0,0,1-.679,2.446A15.44,15.44,0,0,1,29.5,13.329a33.419,33.419,0,0,1-2.661,2.786Q25.321,17.543,23.643,19.043Zm0-2.964q2.357-2.143,4.286-4.25t1.929-3.571a2.139,2.139,0,0,0-2.214-2.214,2.717,2.717,0,0,0-1.2.286A3.581,3.581,0,0,0,25.25,7.4L23.643,9.364,22.036,7.4a3.581,3.581,0,0,0-1.2-1.071,2.717,2.717,0,0,0-1.2-.286,2.139,2.139,0,0,0-2.214,2.214q0,1.464,1.929,3.571t4.286,4.25ZM20.786,33.186,9.679,30.007v2.036H2V17.971H13.036L22.143,21.4a3.762,3.762,0,0,1,1.625,1.161,3.541,3.541,0,0,1,.661,2.3H28.5A3.278,3.278,0,0,1,31,25.936a4.07,4.07,0,0,1,1,2.893v.929ZM4.143,29.9H7.5V20.114H4.143Zm16.5,1.071,9.143-2.786a1.871,1.871,0,0,0-.536-.929,1.187,1.187,0,0,0-.75-.25H21.107a12.467,12.467,0,0,1-3.714-.536L14.5,25.579l.786-2.071,2.607.857a9.862,9.862,0,0,0,1.7.393,21.525,21.525,0,0,0,2.554.107,2.285,2.285,0,0,0-.161-.839,1.037,1.037,0,0,0-.554-.589l-8.75-3.321h-3v7.643ZM7.5,25.007ZM22.143,24.864ZM7.5,25.007ZM9.679,25.007ZM23.643,11.043Z" transform="translate(454 5492.1)" fill="#0c5adb"/>
  </g>
</svg>
