<svg id="Camada_x0020_1" xmlns="http://www.w3.org/2000/svg" width="49.654" height="35.19" viewBox="0 0 49.654 35.19">
  <g id="_3182954338800">
    <path id="Caminho_89" data-name="Caminho 89" d="M126.778,141.639l.45-.757-.378-.559-.632-.126c-.288-.342-.017-.577-.108-.973-.378-.541-1.172-.613-1.334-.92.234.613.829,1.136.685,1.857l-.649.324-.991.037-1.1-.037-.595.361h-1.153l-.811-.4-1.515-.054-1.226-.145-1.19-.666.036-.667-.361-.487h-.361l-.126-.162-.2-.848-.686-.558.451-.2v-.325l-.487-.126-.234-.973-.2-1.19-.2-.505.036-.991.325-.613.4-1.009.27-.595v-.559l-.361-.487-.036-.577.4.162.361-.162.451-.541.125-.45.2-.487.487.45.4-.739.559-.595.433-.091.523-.883.324.288.848-.486-.271-.325.072-.92.126-.45.541-1.01.415-.234-.09-.5.378-.578.541-.649.108-.45.721.433.794-.289h.991l.379-.577.991-.162.848-.559,1.73-.234,1.623.974,2.146-.613.919.505,1.046.162,1.045.162.632.541.09,1.19.7.361.469.974.216.017-.216.758.325.631.775.036.774.451.361.54,1.046.416.126.054.793.18.343.612-.217,1.227.072.071.433.487-.234.794.342.361-.4,1.064.973.811-.415.216.342.632.037.558.523.541.649,1.226-.091.235.613,1.659-.721.72-.253.505.037.469-.74.27h-.595l-.432.7-.559-.037-.793.632v.09l-.613.757-.433-.162-.721-.469-.919-.126-.686.18-.415.2-.829.415-.631-.037-.794-.577-.9.108-.47.4-.991.036h-1.28l-.271-.342h-.361l-.125.342.054.09.324.667.162.469h-.017l-1.046.037-.288.125h-.432l-.145-.09-.883-.036-.18-.2Zm4.409-9.9h0a.85.85,0,0,0-.138.415,8.439,8.439,0,0,1-.408,1.348c-.665,1.605-1.7,1.052-1.948,2.726-.26,1.737,0,3.153,1.382,1.078a6.231,6.231,0,0,0,.327-.831,7.347,7.347,0,0,0,.94-2.561,6.9,6.9,0,0,0-.155-2.175Zm-4.585,5.979h0l.478-1.051a5.118,5.118,0,0,0,.3-3.657c-.031-.154-.011-.228-.135-.3-.186.341-.161,1.51-.628,1.906-.243.206-.318.071-.428.427A3.062,3.062,0,0,0,126.6,137.721Zm-.814-4.839h0a2.781,2.781,0,0,0,.232-2.449c-.084-.2-.159-.348-.233-.538s-.093-.418-.183-.591c-.1-.2-.5-.748-.833-.686-.409.075-.794,1.712-.028,2.237.411.283.547.244.779.762C125.687,131.985,125.7,132.7,125.789,132.882Zm4.4-4.865h0a11.154,11.154,0,0,1-.555,1.136c-.857,1.467-.62.631-1.015,2.412-.064.294-.432,1.082-.136,1.335.344.294.957-.34,1.081-.475a1.868,1.868,0,0,0,.527-1.2c.027-.572-.067-1.1-.048-1.674C130.058,129.049,130.2,128.466,130.187,128.016ZM117.2,129.488h0a7.644,7.644,0,0,0-.757,2.992c.595,1.731,1.93,2.741,2.867,4.111A18.3,18.3,0,0,1,117.2,129.488Zm2.019,1.389h0c-.486-2.074.018-2.759.74-4.886-1.443,2.326-2.506,3.029-.991,5.571A2.261,2.261,0,0,1,119.224,130.876Zm18.047-.83h0c.054,0,.072.253.108.379,2.218-3.876.848-3.011-.144-5.03C137.956,127.541,138.262,128.387,137.271,130.046Zm.848,4.994h0c.054-.017-.343.829-.307.974,2.055-3.822,3.137-2.506,1.875-7.013A11.406,11.406,0,0,1,138.119,135.04Zm-14.388-9.411h0c-.523-.288-.631-.433-.775-2.326-1.081,3.011-.071,3.84.234,5.21A3.242,3.242,0,0,0,123.731,125.629Zm4.381,3.444h0c.83-1.335,1.569-5.913.145-8.221,1.064,3.011-.974,3.263-.794,5.462C127.355,126.981,128.365,126.639,128.112,129.073Zm5.355-2.019h0c-.108-1.623.775-2.2-.685-4.832.487,3.57-.812,2.417-.775,4.255C132.115,127.216,132.728,129.866,133.467,127.054ZM132.673,138h0c3.552-3.065,3.138-8.311,1.714-10.853.252,4.724-1.857,5.661-1.551,7.5C134.873,135.077,132.4,137.186,132.673,138Zm3.7-.216h0c1.136-1.911.217-1.6.757-6.491-1.118,6-3.461,6.13-3.444,7.951C135.162,138.43,135.612,138.755,136.369,137.781Zm-12.313-3.3h0a10.947,10.947,0,0,1-2.326-6.725c-.685,7.446,1.911,7.843,1.93,9.682A3.247,3.247,0,0,0,124.056,134.482ZM122.632,140h0c.631-1.66-2.56-3.552-2.9-8.131.234,4.759,0,7.085,1.334,7.392C122.091,139.566,122.109,139.421,122.632,140Zm8.726-.974h0c.487-.865.036-.5.144-2.218a3.782,3.782,0,0,1-.666,1.749C130.51,139.1,130.546,140.142,131.358,139.025ZM125.9,121.952h0a6.009,6.009,0,0,1-.559-2.164c-.126,1.66-.649,1.461-.432,2.723C124.669,124.223,126.129,122.745,125.9,121.952Z" transform="translate(-103.95 -108.332)" fill="#014e82" fill-rule="evenodd"/>
    <path id="Caminho_90" data-name="Caminho 90" d="M24.817.311V.322L16.6,4.954V0H13.881V6.484L0,14.3,1.331,16.67h0l3.372-1.9V35.19H7.419V13.269H7.377l17.45-9.818,23.5,13.218h0L49.654,14.3,24.838.322V.311l-.01.006Z" fill="#014e82" fill-rule="evenodd"/>
  </g>
</svg>
