<svg xmlns="http://www.w3.org/2000/svg" width="37.5" height="50" viewBox="0 0 37.5 50">
  <path id="file-invoice-solid" d="M6.25,0A6.256,6.256,0,0,0,0,6.25v37.5A6.256,6.256,0,0,0,6.25,50h25a6.256,6.256,0,0,0,6.25-6.25V15.625H25A3.122,3.122,0,0,1,21.875,12.5V0ZM25,0V12.5H37.5ZM7.813,6.25h6.25a1.563,1.563,0,0,1,0,3.125H7.813a1.563,1.563,0,0,1,0-3.125Zm0,6.25h6.25a1.563,1.563,0,0,1,0,3.125H7.813a1.563,1.563,0,0,1,0-3.125Zm1.563,9.375h18.75A3.122,3.122,0,0,1,31.25,25v6.25a3.122,3.122,0,0,1-3.125,3.125H9.375A3.122,3.122,0,0,1,6.25,31.25V25A3.122,3.122,0,0,1,9.375,21.875Zm0,3.125v6.25h18.75V25ZM23.438,40.625h6.25a1.563,1.563,0,0,1,0,3.125h-6.25a1.563,1.563,0,0,1,0-3.125Z" fill="#fff"/>
</svg>
