<svg xmlns="http://www.w3.org/2000/svg" width="65.386" height="50" viewBox="0 0 65.386 50">
  <path id="book-open-solid" d="M28.334,81.891a1.9,1.9,0,0,0,2.543-1.76V37.29a1.55,1.55,0,0,0-.568-1.249C28.084,34.27,22.976,32,16.346,32A41.21,41.21,0,0,0,1.022,35.167,1.716,1.716,0,0,0,0,36.756V79.915a2.086,2.086,0,0,0,2.736,1.873,48.7,48.7,0,0,1,13.611-2.565C20.195,79.223,25.314,80.812,28.334,81.891Zm8.718,0c3.02-1.078,8.139-2.668,11.987-2.668A48.7,48.7,0,0,1,62.65,81.788a2.081,2.081,0,0,0,2.736-1.873V36.756a1.7,1.7,0,0,0-1.022-1.589A41.21,41.21,0,0,0,49.039,32C42.41,32,37.3,34.27,35.077,36.041a1.585,1.585,0,0,0-.568,1.249V80.131a1.906,1.906,0,0,0,2.543,1.76Z" transform="translate(0 -32)" fill="#fff"/>
</svg>
