<svg xmlns="http://www.w3.org/2000/svg" width="62.488" height="50" viewBox="0 0 62.488 50">
  <path id="hands-praying-solid" d="M34.29.467a3.226,3.226,0,0,1,.976-.4,3.27,3.27,0,0,1,1.377.01A3.1,3.1,0,0,1,38.538,1.4L50.244,18.96a7.774,7.774,0,0,1,1.308,4.335v7.176a1.566,1.566,0,0,0,1.064,1.484l7.733,2.578a3.107,3.107,0,0,1,2.138,2.958v9.373a3.136,3.136,0,0,1-1.22,2.48,3.09,3.09,0,0,1-2.7.537L42.082,45.488A12.5,12.5,0,0,1,32.806,33.41V21.869a3.124,3.124,0,1,1,6.249,0V29.68a1.562,1.562,0,1,0,3.124,0V21.391a3.824,3.824,0,0,0-.517-1.933L33.226,4.695a3.239,3.239,0,0,1-.351-.908A3.12,3.12,0,0,1,34.281.467ZM28.2.467a3.111,3.111,0,0,1,1.4,1.943,2.981,2.981,0,0,1,.01,1.377,3.239,3.239,0,0,1-.351.908L20.826,19.457a3.85,3.85,0,0,0-.517,1.933V29.68a1.562,1.562,0,1,0,3.124,0V21.869a3.124,3.124,0,1,1,6.249,0V33.42A12.506,12.506,0,0,1,20.406,45.5L3.935,49.891a3.115,3.115,0,0,1-2.7-.537A3.164,3.164,0,0,1,0,46.864V37.491a3.129,3.129,0,0,1,2.138-2.968l7.733-2.578a1.566,1.566,0,0,0,1.064-1.484V23.285a7.876,7.876,0,0,1,1.308-4.335l11.7-17.536A3.1,3.1,0,0,1,25.835.086a2.981,2.981,0,0,1,1.377-.01,3.035,3.035,0,0,1,.976.4Z" transform="translate(0 0.002)" fill="#fff"/>
</svg>
