<svg xmlns="http://www.w3.org/2000/svg" width="30" height="30" viewBox="0 0 30 30">
  <g id="Grupo_357" data-name="Grupo 357" transform="translate(-1012 -5496)">
    <rect id="Retângulo_170" data-name="Retângulo 170" width="30" height="30" transform="translate(1012 5496)" fill="none"/>
    <path id="pin_drop_FILL0_wght400_GRAD0_opsz48" d="M20.625,25.825a29.607,29.607,0,0,0,5.887-6.056A9.766,9.766,0,0,0,28.5,14.35a7.763,7.763,0,0,0-2.794-6.262,7.515,7.515,0,0,0-2.569-1.406,8.549,8.549,0,0,0-2.513-.431,8.549,8.549,0,0,0-2.513.431,7.515,7.515,0,0,0-2.569,1.406A7.763,7.763,0,0,0,12.75,14.35a9.766,9.766,0,0,0,1.987,5.419A29.606,29.606,0,0,0,20.625,25.825Zm0,2.85a35.181,35.181,0,0,1-7.631-7.388A12.012,12.012,0,0,1,10.5,14.35a10.322,10.322,0,0,1,.919-4.481A10.16,10.16,0,0,1,13.8,6.625a9.952,9.952,0,0,1,3.263-1.969,10,10,0,0,1,7.125,0A9.952,9.952,0,0,1,27.45,6.625a10.16,10.16,0,0,1,2.381,3.244,10.321,10.321,0,0,1,.919,4.481,12.012,12.012,0,0,1-2.494,6.938,35.181,35.181,0,0,1-7.631,7.388Zm0-11.925a2.625,2.625,0,0,0,1.856-4.481,2.625,2.625,0,0,0-3.713,3.713A2.529,2.529,0,0,0,20.625,16.75ZM10.5,34V31.75H30.75V34ZM20.625,14.35Z" transform="translate(1005.5 5492)" fill="#0c5adb"/>
  </g>
</svg>
