<svg xmlns="http://www.w3.org/2000/svg" xmlns:xlink="http://www.w3.org/1999/xlink" width="50" height="50" viewBox="0 0 50 50">
  <defs>
    <clipPath id="clip-path">
      <rect id="Ret칙ngulo_59" data-name="Ret칙ngulo 59" width="50" height="50" fill="#0c5adb"/>
    </clipPath>
  </defs>
  <g id="Grupo_de_m치scara_12" data-name="Grupo de m치scara 12" clip-path="url(#clip-path)">
    <g id="logo-meap" transform="translate(9.73)">
      <path id="Caminho_86" data-name="Caminho 86" d="M23.512-100.008s-.007.244-.014.54c-.007.331-.015,3-.019,6.966l-.007,6.429-2.212,0-2.213,0v.676l.66-.007c.362,0,1.329-.013,2.149-.018,2.771-.021,3.986-.039,5.127-.08,1.421-.051,3.393-.186,3.539-.241.017-.007.024-.015.017-.022-.03-.03-1.376-.148-2.334-.206-.723-.042-1.659-.072-3.317-.1-.377-.007-.689-.016-.692-.021-.019-.019-.072-1.435-.187-5.134-.061-1.934-.147-4.655-.183-5.738-.03-.907-.04-1.295-.048-1.8-.007-.436-.006-.488.01-.488a15.558,15.558,0,0,1,1.992,1.981A55.04,55.04,0,0,1,35.02-82.013c.469,1.124,1.233,3.095,1.587,4.094.54,1.524,1.469,4.525,1.531,4.948.009.067.008.073-.014.088s-.3.124-.623.24a22.027,22.027,0,0,0-5.025,2.487,28.252,28.252,0,0,0-5.115,4.483c-.376.4-.8.869-.955,1.057-.222.265-.092.158.687-.577A29.879,29.879,0,0,1,35.9-71a20.239,20.239,0,0,1,3.62-1.148,2.769,2.769,0,0,0,.458-.107c.016-.013.017-.024,0-.105a53.478,53.478,0,0,0-1.933-5.828A67.76,67.76,0,0,0,33.01-88.431a52.889,52.889,0,0,0-6.224-8.322C25.936-97.68,23.524-100.076,23.512-100.008Z" transform="translate(-9.54 100.009)" fill="#0c5adb"/>
      <path id="Caminho_87" data-name="Caminho 87" d="M13.971-60.869c0,8.708.01,13.277.03,13.96.008.266.008.272.032.272s.15-.029.3-.064a20.12,20.12,0,0,1,2.17-.375,26.025,26.025,0,0,1,3.763-.186c1.518-.007,2.3.008,2.843.055a14.653,14.653,0,0,1,3.006.555c.045.022.063.038.069.058a7.551,7.551,0,0,1-.786,2,18.593,18.593,0,0,1-6.1,6.467c-.653.45-1.47.96-2,1.253-.129.071-.478.25-.777.4a17.578,17.578,0,0,1-1.667.758c-.556.208-.7.2-1.5-.123a11.742,11.742,0,0,1-1.142-.515c-1.006-.5-1.929-.993-2.449-1.312A21.847,21.847,0,0,1,3.9-42.714a13.774,13.774,0,0,1-1.5-2.375,10.869,10.869,0,0,1-.7-1.716c-.014-.067-.014-.071.011-.1a.242.242,0,0,1,.08-.047,21.821,21.821,0,0,1,2.673-.331,2.974,2.974,0,0,0,.428-.046c.269-.053,2.555-.095,4.4-.081,1.041.007,1.383.016,1.816.047s.587.056.644.1c.031.026.034.034.041.139.008.127.045.568.07.853.047.521.2,1.523.33,2.181a19.871,19.871,0,0,0,1.03,3.413c.177.44.338.788.7,1.508.34.687.472.923.5.9a1.4,1.4,0,0,0-.138-.389c-.247-.585-.528-1.367-.757-2.11a18.7,18.7,0,0,1-.747-6.047c.009-.138.021-.386.024-.549.007-.295.007-.3-.017-.312a20.578,20.578,0,0,0-2.349-.241c-1.172-.059-4.6-.053-6.252.011-1.231.048-4.054.259-4.134.308-.019.013,0,.089.1.359A12.636,12.636,0,0,0,2.027-43.8a27.244,27.244,0,0,0,8.449,7.054c.327.176,1.1.561,1.4.694.427.192.8.346,1.2.5.212.08,1.16.4,1.169.393s.19-.064.412-.138a15.233,15.233,0,0,0,2.21-.908,25.354,25.354,0,0,0,3.723-2.3c.468-.345,1.151-.882,1.479-1.164A36.288,36.288,0,0,0,24.9-42.52c.247-.287.587-.738.906-1.2a12.805,12.805,0,0,0,1.51-2.823,5.7,5.7,0,0,0,.332-1.061c-.061-.038-3.181-.233-4.3-.269-1.39-.045-3.925-.045-5.047,0-.616.025-1.32.081-2.067.166a4.636,4.636,0,0,1-.737.056.9.9,0,0,1-.023-.182c-.04-.6-.151-3.629-.257-6.966-.032-1-.083-2.5-.12-3.471-.043-1.177-.153-4.527-.188-5.79-.018-.647-.031-.974-.057-1.519-.032-.643-.049-1.175-.091-2.763a15.438,15.438,0,0,0-.092-1.962c-.006-.018-.032-.019-.354-.019h-.347Z" transform="translate(-0.032 85.165)" fill="#0c5adb"/>
    </g>
  </g>
</svg>
