<svg xmlns="http://www.w3.org/2000/svg" width="49.834" height="48.577" viewBox="0 0 49.834 48.577">
  <g id="Camada_x0020_1" transform="translate(0)">
    <g id="Grupo_137" data-name="Grupo 137" transform="translate(0 0)">
      <path id="Caminho_1176" data-name="Caminho 1176" d="M48.5,18.265l-.054-.037ZM1.333,30.312l.054.037Zm40.961,1.735a.9.9,0,0,0-.123.252,4.731,4.731,0,0,1-.252.487c.1-.177.182-.337.252-.487A.9.9,0,0,1,42.294,32.047Zm1.457-6.369-.166.648ZM9.684,13.193l.07.054ZM.937,26.787l.209.884Zm47.956-5-.209-.878ZM40.617,4.3h-.2c.214.166.439.327.648.493A1.628,1.628,0,0,0,40.617,4.3ZM26.626,42.482l-.182.091.011.005Zm1.521-.953a5.21,5.21,0,0,1-.595.134c-.209.027-.461.064-.884.107,0-.043-.027-.07-.043-.107a5.623,5.623,0,0,0,.621-.054c.225-.027.5-.043.9-.08Zm1.537-.139-.037.005h.021Zm-11.034-.2c.129.021.327.075.627.155a2.15,2.15,0,0,0,.262.011c.257.123.5.241.75.348.1.016.225.043.337.07l.021.005.075-.075.3.08c.1.027.193.043.295.07l.584.129.005-.011c.214.027.45.07.675.107a2.641,2.641,0,0,1,.327.059c.112.011.225.027.321.027.2,0,.412.011.664.027.252,0,.546.011.9-.016h.037l.091-.048c.059-.021.134-.037.2-.059.07,0,.139-.005.2-.005a.472.472,0,0,1,.139.016l.037.1h.311c-.027.043-.07.1-.1.134a.311.311,0,0,0-.054.07,1.085,1.085,0,0,1-.187.08h-.337c-.139-.016-.295-.016-.434-.027-.327-.016-.637-.016-.943-.027-.225-.016-.466-.027-.707-.054-.2-.016-.407-.054-.621-.08s-.407-.054-.616-.1c-.311-.054-.648-.08-.943-.134a2.975,2.975,0,0,1-.734-.23l.011-.005-.434-.129c-.112-.054-.241-.107-.38-.161a3.424,3.424,0,0,1-.434-.134c-.155-.054-.3-.091-.455-.145C18.458,41.18,18.517,41.164,18.651,41.186Zm8.286-.289-.214.032L25.234,41l.493.054c.027-.011.07-.011.123-.027.3-.037.578-.064.873-.091a1.452,1.452,0,0,1,.145-.027Zm1.339-.193-.734.107.252.005a1.2,1.2,0,0,0,.364-.064l.118-.048Zm2.668-.032-2.293.584,1.157-.246Zm-14.7-.268a17.338,17.338,0,0,1,1.623.653c.182.07.38.123.573.177.155.054.3.091.439.145a3.715,3.715,0,0,0,.434.134c.145.054.268.107.38.161a.466.466,0,0,0-.08.07c-.075-.016-.155-.027-.225-.043-.268-.08-.536-.187-.8-.279l-.4-.15c-.129-.054-.268-.107-.4-.161-.182-.054-.348-.118-.52-.171-.155-.07-.311-.123-.45-.187a3.1,3.1,0,0,1-.354-.177,1.862,1.862,0,0,1-.225-.171Zm.664-.337c.268.134.493.257.771.375-.027.016-.054.027-.1.054-.295-.134-.605-.284-.9-.418a1.582,1.582,0,0,0,.225-.011Zm-2.86-.911a5.728,5.728,0,0,1,.959.509c.054.064.241.2.2.214a3.864,3.864,0,0,1-.45-.23,3.9,3.9,0,0,1-.343-.2,1.9,1.9,0,0,1-.364-.295Zm1.682-.348v.005l.048.054.005-.021Zm20.563-.878-.048.005c-.241.187-.552.386-.846.578a5.909,5.909,0,0,1-.83.429c-.182.107-.38.214-.595.332-.112.043-.209.1-.321.134s-.225.08-.337.134a2.386,2.386,0,0,1-.407.2c-.155.064-.3.118-.311.171-.145.054-.3.123-.45.177s-.311.107-.466.161c-.027.027-.086.08-.129.123-.07.027-.123.037-.2.064-.166.043-.337.054-.493.08-.225.07-.434.134-.632.187s-.4.107-.578.177c-.2.064-.407.107-.632.171a6.129,6.129,0,0,1-.787.187,3.307,3.307,0,0,0-1.114.177c-.016.011-.016.027-.027.037l-.536.129.011.005.595-.139.011-.032a3.013,3.013,0,0,1,1.114-.177,7.447,7.447,0,0,0,.787-.187c.225-.064.439-.107.637-.171s.38-.107.578-.177c.193-.054.391-.118.632-.187a4.727,4.727,0,0,0,.493-.08l-.332.193.005-.005c.112-.064.257-.145.354-.2.07-.027.129-.043.2-.07l.011-.005.086-.086c.155-.059.311-.112.466-.166s.311-.118.45-.171c.016-.054.155-.107.311-.177a2.224,2.224,0,0,0,.407-.2c.112-.043.225-.08.337-.134l.236-.1.118-.08c.2-.118.407-.225.595-.332a5.164,5.164,0,0,0,.83-.429Zm-24.147-.182.054.043.016.005-.07-.048Zm24.243-.354-.005.005h0l.021.005.005-.005Zm.305-.2-.086.054-.016.016.059-.037ZM11,36.52l.53.595-.418-.482Zm26.7,0h0l-.011.059c-.112.107-.155.177-.225.241a3.408,3.408,0,0,1-.268.284l.016-.005.252-.262a2.473,2.473,0,0,1,.225-.246C37.7,36.547,37.7,36.525,37.693,36.52Zm-25.32-.305.027.032.005-.005-.032-.027Zm.1,1.7-.5-.525-.027.005.471.5Zm.155-.118a.991.991,0,0,1-.155.118A1.3,1.3,0,0,1,12.63,37.8Zm-1.157-.686c.129.134.252.257.38.391l.032.027-.412-.418Zm-1.184-1.205c.043-.043.182.027.37.225l.016.021.166.037a2.462,2.462,0,0,1,.38.332c.182.15.38.284.52.4s.225.23.225.295a1.066,1.066,0,0,0,.129.15c.182.145.337.279.536.429a16.711,16.711,0,0,0,1.334,1.007c-.08.027-.155.054-.268.08l.1.064c-.139,0-.252.016-.4.016-.086-.054-.166-.107-.252-.161s-.155-.123-.241-.177c-.2-.161-.407-.311-.589-.471s-.37-.321-.552-.466c-.182-.161-.337-.321-.5-.471L11.023,37c-.07-.08-.155-.161-.225-.241.011-.027.155.054.086-.107.1.08.193.161.279.241.112.08.214.161.311.225-.1-.08-.2-.145-.295-.225s-.182-.161-.284-.241c-.1-.123-.209-.246-.311-.364s-.193-.257-.295-.375Zm31.024-2.132h-.005l-.155.354ZM41.169,32.1l-.375.514a3.256,3.256,0,0,0-.182.321c-.07.107-.129.2-.187.295-.139.187-.279.375-.434.552-.129.187-.241.359-.38.546-.112.15-.225.295-.337.445l-.027.016-.027.032.037-.021c.112-.145.225-.295.337-.445.129-.187.257-.359.38-.546.155-.177.3-.364.439-.552.054-.091.129-.187.182-.295s.129-.214.182-.321a3.441,3.441,0,0,1,.38-.525l.011-.016Zm1.457-.182a2.921,2.921,0,0,1-.187.52,3.719,3.719,0,0,1-.321.568c-.112.214-.225.412-.321.573a2.782,2.782,0,0,1-.3.364l.2-.375c.043-.123.112-.241.171-.375.054-.08.08-.134.123-.2.059-.091.112-.177.171-.268s.1-.177.155-.268c.1-.177.209-.348.311-.536Zm-.916-1.152-.337.573-.011.016.348-.578v-.011Zm.187-1.3-.407,1.066a16.711,16.711,0,0,1-.868,1.687l-.123.187h0a2.945,2.945,0,0,1-.3.487,2.352,2.352,0,0,0-.295.52c-.1.123-.225.257-.337.4a2.815,2.815,0,0,0-.279.455,16.751,16.751,0,0,1-1.666,1.784c-.182.15-.364.295-.546.445l-.054.037L37,36.558l-.23.177-.187.209c-.225.171-.45.332-.691.493l-.107.064-.295.23-.043.027-.064.054c-.182.123-.364.241-.546.348s-.37.214-.552.327l-.064.027-.37.23-.112.054-.112.075c-.112.07-.241.134-.38.2l-.359.129-.793.38a18.12,18.12,0,0,1-1.853.664l-1.3.316,1.045-.187c.07-.016.129-.032.2-.043a1.584,1.584,0,0,1,.632-.214c.145-.043.284-.08.4-.123a3.736,3.736,0,0,1,.632-.305c.241-.08.482-.161.718-.241l.461-.171.2-.112.182-.054.257-.134.064-.043.171-.155c.112-.07.257-.15.38-.214l.434-.2.161-.1c.182-.107.364-.225.546-.348a.739.739,0,0,1,.241-.214,1.755,1.755,0,0,1,.268-.161c.225-.161.466-.321.691-.493a1.347,1.347,0,0,1,.493-.445c.182-.15.364-.295.546-.445a16.136,16.136,0,0,0,1.66-1.784l.23-.37.011-.032c.112-.161.252-.348.364-.536.043-.054.075-.107.118-.161l.145-.2.048-.08a4.685,4.685,0,0,0,.3-.487,12.53,12.53,0,0,0,.573-1.136c.171-.391.354-.782.562-1.221a4.493,4.493,0,0,1,.166-.5l.054-.193Zm1.677-1.982-.005.021.043.048c.043.043.08.1.123.134.032-.027.059-.054.086-.054l.005-.011-.059.037a.632.632,0,0,1-.145-.118l-.048-.059Zm-.123-1.521h-.032l.005.064c0,.118,0,.214-.011.332a1.2,1.2,0,0,1-.059.2c-.112.171-.225.348-.337.509a3.841,3.841,0,0,1-.086.445l-.08.145c-.043.214-.086.418-.145.643-.054.177-.1.337-.155.509a4.524,4.524,0,0,1-.166.5c-.027.134-.059.257-.1.391a2.278,2.278,0,0,1-.118.4l.091-.134.08-.284c.016-.145.043-.268.07-.4.059-.161.112-.337.171-.5s.1-.332.155-.509c.054-.214.08-.412.139-.643l.086-.145c.043-.15.054-.284.086-.445.112-.177.225-.337.337-.509-.075.348-.145.68-.225,1.034-.032.321-.23.761-.171.857-.129.375-.241.739-.38,1.1l-.075.112L42.5,29.8a.915.915,0,0,1-.1.284,2.818,2.818,0,0,0-.4.82c-.059.134-.112.284-.182.429a1.519,1.519,0,0,1-.112.23,1.912,1.912,0,0,1-.145.241c-.123.214-.252.439-.38.643a4.074,4.074,0,0,1-.407.632,4.792,4.792,0,0,1-.52.841c-.209.284-.423.578-.578.836-.129.161-.252.321-.38.466s-.268.295-.407.455c-.043.07-.1.123-.139.187-.059.07-.1.123-.155.187-.086.07-.171.134-.241.187l-.391.412.011.048c-.171.171-.284.295-.407.4-.145.091-.295.187-.439.295l-.348.268-.337.23.054-.005.364-.252.354-.268c.139-.1.295-.187.439-.295.112-.107.236-.23.407-.4a.084.084,0,0,0-.016-.054c.139-.139.268-.273.4-.418.07-.054.155-.123.236-.187.043-.054.1-.123.155-.187a1.9,1.9,0,0,1,.145-.187c.139-.15.268-.311.407-.455s.252-.311.38-.471a9.449,9.449,0,0,1,.578-.83,5.247,5.247,0,0,0,.52-.846,4.511,4.511,0,0,0,.407-.632c.129-.2.257-.439.38-.643a1.914,1.914,0,0,0,.145-.241,1.761,1.761,0,0,1,.112-.225c.07-.15.123-.295.182-.434a4.045,4.045,0,0,1,.391-.814,1.767,1.767,0,0,0,.155-.552c.155-.359.257-.723.38-1.1-.054-.107.145-.536.171-.857.086-.337.155-.686.225-1.034l.048-.182-.037-.005a2.192,2.192,0,0,0,.016-.337l.011-.021Zm.429-.418a.728.728,0,0,0-.086.171l-.021.364c0,.107,0,.2-.005.348l-.145.412v.048l.171-.461c.011-.284,0-.4.027-.712l.064-.134Zm-.605-.578-.1.209-.032.3-.043-.139-.016.016.043.15c-.011.07-.011.134-.027.214a.62.62,0,0,1,.059.177l.043-.005-.032-.091c.016-.08.016-.145.027-.214.032-.187.043-.4.075-.616Zm1.178-.364c.016.016.016.016.032.016,0,.225-.016.412-.016.562s.016.268.016.391a3.423,3.423,0,0,1-.043.707,2.016,2.016,0,0,1-.043.4c-.043.177-.086.391-.129.595a3.825,3.825,0,0,1-.043.493c-.1.295-.112.536-.209.911-.07.268-.129.541-.2.793-.166.161-.155-.08-.354.15a.151.151,0,0,1,.032-.08,1.41,1.41,0,0,1,.054-.568c.07-.187.155-.386.214-.589l.166-.091c.129-.536.086-.659.182-1.018.032-.166.07-.327.1-.487s.054-.332.08-.493.043-.321.075-.471c.011-.145.027-.295.027-.439a1.55,1.55,0,0,1,.016-.38c.011-.064.011-.134.027-.2,0-.07.011-.134.011-.2ZM7.327,18.383l.005.005h.005Zm.852-1.918a3.634,3.634,0,0,0-.311.546.979.979,0,0,1-.252.2v.011l-.027.514h0l.027-.514c.08-.054.166-.134.252-.2a4.512,4.512,0,0,1,.311-.552l.011.005.005-.011-.016-.005ZM8.345,15.3c-.054.037-.123.08-.193.134-.1.171-.171.321-.3.589l.07.054v-.011l-.054-.043c.129-.268.2-.418.295-.589l.177-.118Zm1.087-.766-.021.016-.075.273c-.016.064-.032.1-.043.139-.536.686-.846,1.6-1.3,2.255-.059.171-.112.359-.187.546s-.112.38-.166.568a4.745,4.745,0,0,0-.364,1.178c-.086.268-.171.536-.241.8-.043.2-.07.4-.112.605l-.059.305c-.011.107-.027.2-.043.311-.037.284-.1.552-.123.83-.016.177-.032.321-.043.509.011.134.043.268.07.536l.032-.289-.005-.1c.016-.187.043-.391.059-.562.027-.284.086-.552.123-.83l.1-.118.145-.932-.005-.161.139-.38.086-.316-.027.054a.178.178,0,0,0-.086-.027c-.07.171-.139.375-.209.578,0,.091,0,.2.011.321-.037.214-.07.4-.1.616,0,.027-.016.064-.016.107-.054.054-.08.107-.139.161.016-.107.027-.2.043-.311l.054-.305c.043-.2.075-.4.118-.605.08-.268.166-.536.236-.8a4.917,4.917,0,0,1,.37-1.178c.054-.187.1-.38.166-.568s.129-.359.182-.546c.45-.659.75-1.569,1.3-2.255a4.141,4.141,0,0,0,.129-.429Zm2.635-3.085-.021.021a.4.4,0,0,1-.08.112c-.284.311-.578.616-.857.97a2.789,2.789,0,0,0-.241.268c-.086.091-.155.187-.241.279L9.571,14.211l1.071-1.125c.086-.1.155-.187.241-.284s.166-.171.236-.268c.284-.348.578-.643.862-.964Zm.145-.155-.118.118-.027.037.145-.155Zm.011-.011-.005.005-.005.005Zm.359-.921a.281.281,0,0,0-.123.037l-.091.032-.021.027a.735.735,0,0,0-.155.134c-.139.08-.252.15-.391.241l-.268.284-.257.279a1.816,1.816,0,0,0-.166.15l-.005-.011-.161.187a3.682,3.682,0,0,1-.273.316l-.434.461.07.08v-.005l-.059-.064c.145-.15.311-.311.439-.455.279-.295.295-.391.434-.509.07-.07.129-.107.171-.15l.252-.279.268-.284c.139-.08.252-.145.4-.241.054-.043.112-.1.155-.134a.564.564,0,0,0,.166-.059l.054-.016v-.021Zm20.4-2.426a5.716,5.716,0,0,1,.718.311.674.674,0,0,1,.311.241c-.268-.134-.509-.23-.691-.321a1.215,1.215,0,0,1-.337-.23Zm-2.341-.975a1.842,1.842,0,0,1,.562.118c.241.1.509.23.793.375A4.715,4.715,0,0,1,30.638,6.958Zm-8.474-.091a.941.941,0,0,0-.3.037c-.193.027-.423.054-.632.08s-.423.091-.621.134c-.08.027-.166.054-.268.08s-.193.054-.305.08l-.68.123-.123.048c-.284.1-.578.177-.862.284s-.562.2-.841.321c-.214.091-.412.171-.595.252a2.394,2.394,0,0,0-.4.15c-.337.118-.643.284-.97.429-.155.08-.311.187-.466.284s-.311.187-.45.279a3.306,3.306,0,0,1-.718.509c-.225.161-.45.337-.675.509l-.648.541.054.064a.732.732,0,0,0,.139-.091l.118-.08.423-.354c.225-.171.45-.332.675-.509a3.749,3.749,0,0,0,.718-.509c.155-.091.295-.187.45-.279s.295-.187.466-.284c.321-.145.648-.311.97-.429a3.587,3.587,0,0,0,.38-.187c.182-.08.4-.161.595-.257.279-.118.562-.214.841-.321s.579-.187.862-.279l.359-.07.177-.059,2.373-.487ZM27.2,6.578c.1.005.2.016.3.027a.794.794,0,0,1,.407.134c-.086-.011-.166-.027-.311-.037s-.337-.054-.648-.123a1.956,1.956,0,0,1,.252,0Zm1.639-.107c.2.016.38.027.578.043a6.692,6.692,0,0,1,.7.268c-.337-.043-.648-.107-.873-.15s-.38-.107-.407-.161Zm-4.714,0q-.811,0-1.623.08a8.391,8.391,0,0,0-1.13.15,3.561,3.561,0,0,0-.536.134c-.166.054-.321.107-.461.161-.225.027-.423.054-.648.08a21.7,21.7,0,0,0-2.453.9c-.295.107-.605.252-.884.375-.086.027-.187.064-.268.091-.086.043-.171.08-.241.123-.155.08-.311.161-.45.23a6.967,6.967,0,0,1-.707.348,3.108,3.108,0,0,0-.536.4A8.525,8.525,0,0,0,12.641,10.7l-.321.268L12,11.238l.005.011A18,18,0,0,0,9.571,13.97c-.209.284-.38.482-.493.643A1.986,1.986,0,0,0,8.854,15c-.07.118-.155.241-.225.359-.139.257-.284.509-.423.755l-.461.686-.005.021c-.054.123-.1.268-.155.4a.867.867,0,0,1-.112.187l-.027.027-.123.4a.894.894,0,0,0-.032.236.919.919,0,0,1-.027.337c-.07.187-.129.359-.2.546-.054.187-.129.364-.182.552-.07.279-.129.536-.2.8-.043.257-.07.5-.112.739a6.8,6.8,0,0,0-.07.734c.043-.187.07-.359.1-.509l.011-.037.021-.2c.037-.241.07-.493.112-.734l.032.011.005-.016-.037-.011c.07-.279.123-.536.193-.8.059-.187.118-.375.187-.552l.193-.546H7.306a.919.919,0,0,0,.027-.337,1.567,1.567,0,0,1,.155-.632,1.077,1.077,0,0,1,.112-.187l.005-.011.15-.391c.155-.241.295-.466.466-.7.139-.257.268-.509.423-.75.07-.107.15-.241.225-.364a1.973,1.973,0,0,1,.225-.386c.112-.161.279-.364.493-.648a17.5,17.5,0,0,1,2.437-2.721c.225-.187.407-.375.643-.562a8.4,8.4,0,0,1,1.553-1.152,3.879,3.879,0,0,1,.536-.4,7.572,7.572,0,0,0,.7-.348c.139-.07.295-.15.45-.23l.241-.123a1.743,1.743,0,0,1,.268-.091c.279-.134.589-.268.884-.375a20.965,20.965,0,0,1,2.453-.9c.225-.027.423-.054.648-.08q.209-.08.466-.161A3.264,3.264,0,0,1,21.4,6.7a8.667,8.667,0,0,1,1.125-.15c.541-.043,1.082-.07,1.628-.075l1.307.037-1.339-.043ZM23.67,41.7a1.1,1.1,0,0,1,.112.016c.364.011.7,0,1.039,0,.268.011.525.011.761.027.311-.016.621-.054.905-.07H26.6c.011.043.043.07.043.107a6.247,6.247,0,0,0,.884-.107,3.144,3.144,0,0,0,.595-.134,2.456,2.456,0,0,0,.337-.054c.07-.011.139-.011.209-.027.171-.037.311-.064.466-.107l.38-.08c.129-.027.252-.064.38-.091l.7-.118.091-.032c-.241.043-.493.08-.734.123-.123.027-.252.064-.38.091l-.38.08c-.166.043-.295.07-.461.107-.07.016-.145.016-.214.027-.112.016-.225.027-.337.054-.391.043-.675.054-.916.08a5.04,5.04,0,0,1-.616.054H26.53c-.284.027-.595.07-.905.07-.236-.016-.493-.016-.761-.027-.337,0-.675.011-1.039,0-.027,0-.07-.016-.112-.016-.155-.054-.268-.107-.439-.171-.07.054-.166.091-.236.145l-.005.005.2-.123C23.4,41.593,23.53,41.646,23.67,41.7Zm-.675-.027c.225.016.461.016.675.027C23.445,41.7,23.2,41.689,22.995,41.673ZM5.827,23.541V24.4c0,.145,0,.295.011.439a4.135,4.135,0,0,1,.032.445c-.059.011-.043.509-.129.418H5.715a2.741,2.741,0,0,1-.086-.809,5.349,5.349,0,0,0,0-.83c.016-.225.043-.429.07-.643l.129.118ZM26.107,5.9c.209.011.45.027.659.037.241.016.466.043.675.07a1.024,1.024,0,0,1,.455.107.932.932,0,0,0,.295.134c.2,0,.112-.107.364-.07.182.027.37.08.552.123.112.027.225.064.337.091a.016.016,0,0,1-.016.016.106.106,0,0,1-.011.091c-.2-.011-.38-.027-.578-.037a1.36,1.36,0,0,1-.2-.054c-.07-.016-.129-.027-.2-.043l-.38-.08-.38-.08c-.129-.011-.252-.037-.391-.054H25.951l-.027-.005-.241.112c-.129.043.236.07.086.134.295.054.589.107.841.161l-.375.011h.005a1.6,1.6,0,0,0,.4-.011c.112.016.225.027.337.043.311.064.5.091.648.118s.225.027.305.043c.171.037.354.08.525.107s.348.08.536.107c.166.043.348.08.52.123l.52.145.257.07.252.08h0l.182.032a1.487,1.487,0,0,1,.445.155l.059.086.016.005c.129.054.268.107.4.15a2.944,2.944,0,0,1,.337.134c.112.054.225.091.337.145a1.7,1.7,0,0,0,.252.134l.171.08a1,1,0,0,1,.182.1,3.259,3.259,0,0,1,.621.337c.252.161.52.305.787.482.129.08.268.171.407.268l.011.005.214.123A16.942,16.942,0,0,1,42.9,23.852l-.005.112.161.021c.059.043.1.07.155.107.016.15.043.187.07.364.086.161.182.295.268.429l.112.011V24.79l.118-.3-.005-.059c.043-.4.07-.391.112-.364a.377.377,0,0,1,.155,0,1.15,1.15,0,0,1,.241-.145c.011.2.011.375.027.589-.027.091-.043.187-.07.279s-.059.187-.086.268c-.011.15-.027.295-.043.445l-.011.23c-.016.08-.016.145-.032.225l-.059.037.005.016.059-.037.027-.214.011-.23c.016-.145.032-.295.043-.445.027-.08.059-.171.086-.268a2.644,2.644,0,0,0,.07-.279c.043.027.07.054.112.08a1.23,1.23,0,0,1-.011.2c-.016.07-.016.134-.032.2a1.776,1.776,0,0,0-.011.375c-.016.134-.016.284-.032.445-.027.145-.043.305-.07.466s-.043.321-.086.5c-.027.161-.07.321-.1.482-.1.364-.07.482-.182,1.018a.922.922,0,0,0-.171.1c-.054.187-.139.4-.209.589-.1.311-.027.348-.059.562a.459.459,0,0,0-.027.08c-.086.214-.166.429-.241.616a.163.163,0,0,1-.07.054c-.1.214-.2.445-.295.659.112-.214.209-.445.311-.659.027-.027.043-.027.07-.054a3.859,3.859,0,0,1-.45,1.221l-.241.123-.048.091.005.016a1.17,1.17,0,0,1,.059-.107,1.473,1.473,0,0,0,.241-.123.928.928,0,0,1-.171.455c-.1.187-.209.364-.311.536-.054.1-.1.177-.155.268s-.112.177-.166.273c-.043.054-.07.118-.129.2a4.257,4.257,0,0,1-.182.391l-.2.375a4.467,4.467,0,0,1-.311.4c-.1.118-.209.252-.311.375l.016-.027-.354.455c-.086-.08-.546.552-.761.793l-.15.22.15-.209c.214-.225.675-.857.761-.787-.043.279-.45.643-.578.83a2.527,2.527,0,0,1-.295.295l-.241.166-.011.021-.15.107-.005.043c-.209.214-.423.439-.664.643a7.7,7.7,0,0,1-.7.616l-.032.021-.236.284a5.6,5.6,0,0,1-.562.407l-.525.375H36.5l.53-.364c.182-.134.38-.268.562-.4a1.429,1.429,0,0,1-.466.445,1.091,1.091,0,0,1-.375.23l-.262.107-.011.011c-.1.064-.182.118-.279.171l-.107.048-.268.2a1.88,1.88,0,0,1-.262.177,1.932,1.932,0,0,1-.391.241c.027-.037-.043-.011-.129.016l-.139.059-.021.016.177-.064c.086-.027.139-.054.123-.011a1.548,1.548,0,0,1-.5.364c-.112.054-.214.1-.327.161s-.225.091-.321.145l-.23.032-.037.021c-.354.161-.707.295-1.071.445l-.054.011-.327.2a.49.49,0,0,1,.182.054,1.553,1.553,0,0,1-.675.279c.016-.054.043-.118.059-.187-.075.027-.145.054-.225.08s-.145.043-.214.07a4.478,4.478,0,0,0-.434.134l-.059-.07-.209.043c-.086.011-.171.037-.257.054-.166.037-.348.091-.52.118l-.016.011.493-.118a2.192,2.192,0,0,1,.257-.054c.086-.011.155-.037.209-.037a.137.137,0,0,0,.086.064,3.8,3.8,0,0,0,.439-.134c.07-.027.139-.037.209-.064s.139-.054.225-.08c-.016.054-.043.118-.059.187-.193.091-.391.171-.589.268l-.027-.011-.407.155c-.129.043-.241.07-.343.1-.209.054-.364.08-.5.123.005-.037-.08-.037-.209-.021l-.439.086-.016.027c-.364.08-.771.15-1.168.214a2.684,2.684,0,0,1-.268-.064h-.225c-.112.037-.252.08-.4.118a2.675,2.675,0,0,1-.348.027c-.112,0-.225.016-.354.016l-.037-.016-.321.054a1.377,1.377,0,0,1-.386-.064l.011-.016a.671.671,0,0,0,.07-.091c-.112-.016-.225-.027-.321-.043.043-.027.112-.054.155-.08.155,0,.311,0,.466-.011a4.212,4.212,0,0,1,.45-.016l.648.016.45-.043c.295-.054.578-.118.846-.171a4.427,4.427,0,0,1,.562-.123,3.967,3.967,0,0,1,.423-.016l.027-.011-.407.011a2.97,2.97,0,0,0-.568.123c-.268.054-.546.123-.841.177-.145.011-.284.027-.45.037-.2,0-.423,0-.648-.011-.145,0-.3.011-.455.011a4.363,4.363,0,0,1-.461.016.039.039,0,0,1,.011-.054,1.453,1.453,0,0,0,.1-.134,20.43,20.43,0,0,0,4.333-.686,18.166,18.166,0,0,0,2.946-1.061c.225-.118.493-.257.777-.391.139-.064.295-.134.434-.214s.295-.145.45-.225c.295-.161.578-.321.846-.482a6.154,6.154,0,0,0,.675-.5c.423-.295.846-.589,1.269-.937.112-.1.236-.177.348-.268s.23-.187.343-.284a6.568,6.568,0,0,0,.5-.439c.07-.123.155-.23.214-.337l.3-.268.005-.016-.295.257c-.054.107-.139.214-.209.337-.171.161-.327.295-.509.439-.112.1-.225.187-.337.284s-.225.171-.354.268c-.418.332-.83.643-1.264.937a5.666,5.666,0,0,1-.675.5c-.268.161-.552.332-.846.482-.155.08-.295.145-.45.225s-.3.15-.439.214c-.279.134-.546.273-.771.391a21.357,21.357,0,0,1-2.946,1.061,20.771,20.771,0,0,1-4.339.686h-.321c-.016-.043-.043-.07-.043-.107a1.034,1.034,0,0,0-.337-.016c-.129.037-.295.08-.311.123-.354.011-.632.011-.9.011s-.466-.027-.664-.027c-.112-.011-.209-.027-.321-.027a2.97,2.97,0,0,1-.327-.054l.2-.2-.043.011-.728-.129-.032.005c-.546-.08-1-.161-1.393-.241-.2-.037-.38-.08-.552-.107a4.027,4.027,0,0,0-.477-.08c-.182-.08-.38-.161-.578-.252-.2-.07-.407-.15-.718-.257-.252-.091-.509-.187-.745-.279a.468.468,0,0,1,.123-.1c.187.043.354.07.525.1a2.607,2.607,0,0,1,.225.187c.2.037.407.118.771.214a8.308,8.308,0,0,0,1.537.375c.129.027.252.037.38.064s.268.043.407.07.295.054.45.091l.5.1.037-.005c.155.027.295.037.466.064.016-.011.016-.011.016-.027H23l-.445-.064c-.182-.043-.354-.07-.52-.107s-.311-.07-.45-.1-.284-.037-.412-.064-.252-.043-.38-.07a7.854,7.854,0,0,1-1.532-.375c-.364-.08-.578-.161-.777-.214a1.492,1.492,0,0,1-.225-.187c-.166-.027-.337-.054-.52-.091-.268-.123-.509-.246-.777-.38-.08,0-.139.016-.225.016-.279-.134-.536-.257-.8-.391-.037-.08-.1-.161-.139-.241a.042.042,0,0,0,.027-.011c.155.091.327.171.493.252s.327.161.493.257a1.165,1.165,0,0,0,.145-.08,2.8,2.8,0,0,1-.578-.364.955.955,0,0,0-.477-.2,6.512,6.512,0,0,0-.664-.364c-.2-.118-.38-.225-.562-.348-.45-.241-.327.016-.889-.364-.112-.08-.209-.161-.337-.268a.093.093,0,0,0,.07-.027c.129.043.225.07.337.1a4.065,4.065,0,0,0-.7-.7c-.139-.107-.268-.214-.4-.311s-.252-.2-.364-.305a2.5,2.5,0,0,1-.466-.364c-.241-.241-.434-.471-.675-.712l-.048-.139-.134-.129q-.233-.217-.466-.482c-.027-.091-.241-.348-.054-.241-.075-.08-.129-.177-.187-.241l-.021-.032-.214-.145a3.573,3.573,0,0,1-.423-.573,2.9,2.9,0,0,1-.241-.536H9.432c-.112-.187-.225-.391-.327-.595S8.9,32.1,8.795,31.9c-.112-.225-.225-.455-.321-.68l-.295-.7a2.8,2.8,0,0,1,.295.471c.086.177.171.364.295.589a1.131,1.131,0,0,1,.1.321l.037.059-.048-.246-.134-.23-.209-.455-.252-.4c-.1-.268-.214-.536-.311-.8l-.268-.825L7.6,28.753c-.15-.471-.273-.953-.38-1.441l-.166-1.05v.032a1.666,1.666,0,0,0,.011.214,4.745,4.745,0,0,1,.07.493c.032.177.059.354.086.514a1.971,1.971,0,0,1-.139-.445c-.027-.177-.059-.364-.1-.562H6.866A4.007,4.007,0,0,0,6.8,26c-.027-.107-.07-.214-.1-.321s-.059-.214-.086-.311c-.086-.1-.155-.161-.241-.241H6.3a1.838,1.838,0,0,1-.07-.337,3.607,3.607,0,0,1-.027-.429,1.839,1.839,0,0,1,.054-.6c.016-.08.016-.15.032-.22l.043-.145-.021-.337c.005-.166.016-.337.032-.493l.059-.1v-.059a1.375,1.375,0,0,1-.112.2c-.032-.054-.075-.08-.1-.134-.054-.08-.043-.8-.182-.241l-.032-.193-.011.021c-.016.171-.043.359-.054.536s-.043.359-.043.536c-.016.134-.032.279-.043.412l-.112-.134a2.1,2.1,0,0,1-.032-.482c0-.2.016-.439.032-.734,0-.07.011-.134.011-.2.016-.107.032-.225.043-.337.059-.187.112-.412.171-.6l.08-.4-.027-.1c-.027.177-.07.337-.1.536-.059.187-.112.418-.171.605-.011.107-.027.23-.043.337,0,.064-.011.134-.011.2,0,.295-.016.536-.027.739a3.928,3.928,0,0,0,.027.482c-.027.23-.059.429-.07.643a5.349,5.349,0,0,1,0,.83,2.916,2.916,0,0,0,.08.809h.032c.054.252.112.493.182.761.016.177.054.337.1.632.07.23.145.445.214.643a14.035,14.035,0,0,0,.332,1.387l.027.262h.064c.155.375.252.578.305.712a.859.859,0,0,1,.118.359c-.059-.011-.129-.145-.214-.305s-.155-.348-.225-.482c-.07-.177.054.305-.016.134l-.123-.364-.086.016a2.9,2.9,0,0,1-.1-.311,1.726,1.726,0,0,1-.343-.739,2.268,2.268,0,0,0-.209-.653.83.83,0,0,1-.016-.552c-.027-.214-.07-.429-.1-.643s-.043-.429-.07-.643a4.049,4.049,0,0,1-.155-.471c-.037-.386-.059-.8-.059-1.184A4.2,4.2,0,0,1,5.5,22.979a2.1,2.1,0,0,1,.1-.643c-.032-.118-.059-.225-.086-.348.027-.225,0-.75.166-.964.016-.1.032-.161.043-.23a5.333,5.333,0,0,1,.112-.777,3.869,3.869,0,0,1,.3-.562c.07.145-.1.525-.075.766l.075-.134.037-.311a.608.608,0,0,0,.016-.348c.043-.161.086-.284.129-.445.07-.214.123-.439.2-.67s.15-.455.236-.686l.021-.016.107-.546a2.889,2.889,0,0,0,.155-.386,1.712,1.712,0,0,1,.182-.321c.129-.23.225-.461.364-.675.1-.214.2-.386.3-.6.011-.187.295-.536.418-.777.075-.08.155-.166.311-.337.1-.2.182-.348.257-.471a3.505,3.505,0,0,1,.209-.295c.086-.08.214-.214.225-.107a.347.347,0,0,0,.059-.08c.07-.145.139-.279.225-.429a4.5,4.5,0,0,1,.434-.482c-.1.171.011.139.011.2l-.027.08.455-.445a1.465,1.465,0,0,1,.225-.284c.1-.091.209-.187.295-.268l.027.027L11,11.409c.123-.123.236-.241.364-.348.112-.107.241-.214.364-.321.155-.15.257-.273.4-.407.182-.134.38-.268.546-.386.2-.15.4-.284.595-.418l.354-.236.236-.2c.145-.08.284-.161.423-.241s.295-.15.45-.23l.064-.027.15-.145c.086-.064.182-.123.252-.177a.806.806,0,0,1,.279-.134l.193-.043.037-.027a18.743,18.743,0,0,1,3.83-1.473l.139-.032.4-.129a1.821,1.821,0,0,1,.268-.054h.145l.054-.016a18.57,18.57,0,0,1,3.208-.4c.273.005.589,0,.911,0s.659-.005.975.016l.021.011.471-.054c.155.027.3.043.439.07s.279.037.434.08l.225.048-.236-.064c-.145-.027-.3-.054-.439-.08s-.279-.037-.434-.064V5.9ZM9.218,44.276h.2c-.209-.161-.434-.327-.648-.487A1.632,1.632,0,0,0,9.218,44.276Zm.22,0h.911c-.514-.38-1.028-.766-1.543-1.216-.145-.129-.305-.236-.45-.364s-.284-.252-.429-.38c-.23-.2-.429-.38-.643-.6-.091-.161-.2-.311-.273-.455L6.625,40.9V40.88l.37.348c.075.145.182.289.268.45a8.591,8.591,0,0,0,.648.6c.145.129.284.257.429.38s.289.236.45.364c.53.45,1.039.862,1.586,1.253h.514l.5.305c.177.107.375.2.573.305l.075.043.193.193c.112.086.23.166.321.236a.923.923,0,0,0,.354.182l.246.059.043.032a22.588,22.588,0,0,0,4.88,2l.177.043.5.177a1.624,1.624,0,0,0,.343.07h.182l.064.021a21.948,21.948,0,0,0,4.087.546c.348-.011.75,0,1.162,0s.836.005,1.237-.021l.027-.016.6.07c.2-.032.38-.054.557-.091s.359-.054.557-.107l.284-.064-.305.086c-.177.032-.375.07-.552.107s-.359.054-.557.091v.037c.268-.021.573-.037.841-.059.305-.016.595-.054.862-.091a1.188,1.188,0,0,0,.573-.145,1.286,1.286,0,0,1,.375-.182c.252,0,.145.15.466.091.236-.032.466-.107.7-.161.139-.037.284-.091.429-.129a.016.016,0,0,0-.016-.016.15.15,0,0,0-.021-.129c-.252.016-.482.037-.734.054a1.5,1.5,0,0,0-.252.075c-.086.016-.161.037-.252.054-.161.037-.321.07-.482.107l-.482.112c-.161.016-.321.054-.5.07h-1.7l-.032.011-.305-.155c-.161-.054.305-.091.107-.182.375-.07.75-.145,1.071-.22l-.477-.005h.011a1.937,1.937,0,0,1,.5.005c.145-.016.289-.032.429-.054.4-.091.648-.123.825-.161s.289-.037.4-.054c.214-.059.45-.112.664-.15.23-.032.445-.107.68-.145.214-.054.45-.107.664-.161l.659-.2.327-.091.321-.112h.005l.23-.043a2.207,2.207,0,0,0,.562-.209l.075-.123.021-.005a4.9,4.9,0,0,1,.5-.2c.145-.054.284-.112.429-.182s.289-.129.434-.2a1.616,1.616,0,0,1,.321-.182l.214-.112a1.608,1.608,0,0,0,.23-.123,4.7,4.7,0,0,0,.793-.455c.225-.155.455-.295.691-.45h1.275l.075-.054c.573-.327.412.016,1.13-.493.145-.107.268-.214.434-.359a.143.143,0,0,1-.091-.037c-.161.054-.289.091-.434.129a5.768,5.768,0,0,1,.9-.948c.177-.145.337-.289.5-.418.166-.145.327-.273.466-.418a2.72,2.72,0,0,0,.595-.487c.305-.327.557-.637.857-.964l.059-.187.177-.177c.2-.2.4-.418.589-.653.037-.129.305-.471.075-.327.086-.107.161-.236.23-.327l.027-.043.279-.193a4.75,4.75,0,0,0,.407-.557V36.89a23.388,23.388,0,0,0,3.68-12.63l-.011-.155.2-.027c.075-.054.129-.091.2-.145.021-.2.054-.257.091-.493a5.7,5.7,0,0,1,.343-.578l.139-.016v.139l.145.412v.08c.054.546.091.525.145.487a.312.312,0,0,0,.2,0,1.415,1.415,0,0,0,.3.2c.021-.273.021-.509.037-.8-.037-.123-.054-.252-.091-.38s-.07-.252-.107-.364c-.016-.2-.032-.4-.054-.595l-.016-.311c-.016-.107-.016-.2-.037-.311l-.075-.048.005-.021.075.048.032.295.016.311c.021.2.037.4.054.6.037.107.075.236.107.364a2.313,2.313,0,0,1,.091.38c.054-.037.091-.075.145-.112a1.469,1.469,0,0,0-.016-.268c-.021-.091-.021-.182-.037-.273a2.352,2.352,0,0,1-.016-.509c-.021-.182-.021-.386-.037-.6-.037-.2-.054-.418-.091-.637s-.054-.434-.107-.67c-.037-.22-.091-.439-.123-.653-.129-.493-.091-.653-.236-1.382a1.512,1.512,0,0,1-.214-.129c-.07-.252-.177-.541-.268-.8a2.466,2.466,0,0,1-.075-.761.409.409,0,0,1-.032-.112c-.107-.289-.214-.578-.305-.836a.344.344,0,0,0-.091-.07c-.123-.289-.252-.6-.375-.889.145.289.268.6.391.889.037.037.059.037.091.07a5.531,5.531,0,0,0-.573-1.65,1.591,1.591,0,0,0-.305-.166l-.064-.129.011-.016a1.277,1.277,0,0,0,.075.145,1.74,1.74,0,0,1,.3.166,1.237,1.237,0,0,0-.214-.621c-.123-.252-.268-.487-.391-.723-.075-.129-.129-.236-.2-.364s-.145-.236-.214-.364c-.054-.07-.091-.161-.161-.273-.075-.182-.145-.343-.236-.525l-.252-.509a6.717,6.717,0,0,0-.391-.546c-.129-.161-.268-.343-.4-.509l.016.037-.445-.616c-.107.107-.7-.745-.97-1.071l-.187-.3.187.284c.268.305.862,1.162.97,1.071-.054-.386-.573-.873-.734-1.13a4.122,4.122,0,0,0-.38-.4l-.305-.225-.016-.027-.187-.145-.011-.054c-.268-.289-.536-.6-.841-.873a10.186,10.186,0,0,0-.895-.836L41.362,5.2l-.3-.391A8.325,8.325,0,0,0,40.4,4.3h-.911c.514.386,1.028.766,1.543,1.221.139.123.3.236.445.359s.289.257.429.386c.236.2.434.38.648.595.091.166.2.311.268.455l.386.359.005.021-.375-.343c-.07-.145-.177-.289-.268-.455-.214-.214-.412-.4-.643-.6-.145-.123-.289-.252-.429-.38s-.289-.236-.45-.364C40.516,5.1,40,4.692,39.455,4.3h-.509l-.5-.3c-.177-.107-.375-.2-.573-.311L37.8,3.648l-.2-.193c-.107-.086-.23-.166-.316-.241a1.007,1.007,0,0,0-.354-.182l-.246-.059-.048-.032a22.819,22.819,0,0,0-4.874-2L31.581.905l-.5-.177A2.2,2.2,0,0,0,30.74.653h-.182L30.494.637A21.51,21.51,0,0,0,26.407.091c-.354.011-.75,0-1.162-.005S24.409.08,24,.107L23.98.129,23.375.054c-.2.037-.375.054-.552.091s-.359.054-.557.107l-.289.07.305-.086c.182-.037.375-.07.557-.107S23.2.075,23.4.037V0c-.273.016-.573.037-.846.054-.305.021-.589.054-.857.091a1.3,1.3,0,0,0-.573.145,1.193,1.193,0,0,1-.38.182c-.246,0-.139-.145-.466-.091-.23.037-.466.112-.7.166-.145.037-.289.091-.429.123,0,0,0,.021.016.021a.171.171,0,0,0,.016.129c.252-.021.487-.037.739-.059a1.063,1.063,0,0,0,.246-.07c.091-.021.161-.037.252-.054l.487-.112c.161-.032.321-.07.482-.107.161-.016.321-.054.5-.075h1.7l.037-.011.305.161c.161.054-.305.091-.107.177-.375.075-.755.15-1.077.22L23.225.9H23.22a2.23,2.23,0,0,1-.509-.011c-.139.021-.284.037-.429.054-.391.091-.643.129-.825.166s-.284.037-.391.054c-.22.054-.45.107-.664.145-.236.037-.45.107-.68.145l-.664.166-.664.2-.321.091-.321.107-.005.005-.23.043a1.9,1.9,0,0,0-.562.209l-.08.118-.021.011c-.161.07-.337.145-.5.2a3.739,3.739,0,0,0-.434.182c-.139.07-.284.123-.429.2a2.426,2.426,0,0,1-.321.182c-.075.037-.145.075-.214.107a1.7,1.7,0,0,0-.236.129,4.834,4.834,0,0,0-.787.455c-.225.15-.455.295-.7.445H11.966l-.08.059c-.573.327-.412-.021-1.13.487-.139.107-.268.22-.429.364a.129.129,0,0,1,.091.037c.161-.054.284-.091.429-.129a5.937,5.937,0,0,1-.895.943c-.182.145-.343.295-.5.418-.161.145-.321.273-.466.418a2.959,2.959,0,0,0-.589.493c-.305.327-.557.632-.862.959l-.059.187L7.3,8.71c-.2.2-.4.418-.595.653-.032.129-.305.477-.07.327-.091.112-.161.236-.236.327l-.027.048-.279.193a5.333,5.333,0,0,0-.4.552v.878a23.329,23.329,0,0,0-3.68,12.63l.005.15-.2.032c-.07.054-.123.091-.2.145-.016.2-.054.252-.086.493-.107.214-.236.4-.343.578l-.145.016v-.145L.9,25.181.9,25.1c-.054-.546-.091-.53-.145-.493a.411.411,0,0,0-.2,0,1.641,1.641,0,0,0-.305-.2c-.016.273-.016.509-.037.8.037.129.054.257.091.38s.075.257.107.364c.021.2.037.4.054.6l.021.311c.016.107.016.2.032.305l.08.054L.6,27.243l-.075-.048-.032-.3-.021-.305c-.016-.2-.032-.4-.054-.6-.032-.107-.07-.236-.107-.364a3.265,3.265,0,0,1-.091-.38c-.054.037-.086.07-.139.107a1.559,1.559,0,0,0,.016.273c.016.091.016.182.037.273a2.737,2.737,0,0,1,.016.509c.016.182.016.38.037.6.032.2.054.418.086.632s.054.439.112.675c.032.22.086.434.123.653.123.487.091.653.23,1.382a1.133,1.133,0,0,1,.22.123c.07.257.177.546.268.8a2.6,2.6,0,0,1,.07.761.319.319,0,0,1,.037.107c.107.295.214.584.305.836a.358.358,0,0,0,.086.075c.129.289.252.6.38.889-.145-.289-.268-.6-.4-.889-.037-.037-.054-.037-.091-.075a5.672,5.672,0,0,0,.573,1.655A1.905,1.905,0,0,0,2.5,34.8l.064.129-.011.016a.844.844,0,0,0-.07-.145,1.541,1.541,0,0,1-.305-.161,1.328,1.328,0,0,0,.214.616c.129.257.268.493.4.728.07.123.123.236.2.364s.139.236.214.359c.054.075.091.166.161.273.07.182.145.348.23.525l.252.509a5.94,5.94,0,0,0,.4.546c.123.166.268.348.4.509l-.021-.032.45.616c.107-.112.7.745.964,1.071l.193.295-.193-.279c-.268-.311-.857-1.162-.964-1.071.054.38.573.873.734,1.125a3.563,3.563,0,0,0,.38.4l.3.225.016.027.193.15.005.054c.268.289.541.595.846.868a8.788,8.788,0,0,0,.895.836l.043.032.295.386a6.464,6.464,0,0,0,.67.509Zm2.742,0h.037c.2.1.418.236.675.375.177.091.375.2.573.311.107.054.193.107.305.161a1.693,1.693,0,0,0,.337.129c.359.182.755.364,1.13.509a24.975,24.975,0,0,0,3.117,1.216c.289.037.536.075.825.112.177.07.375.145.589.214a4.026,4.026,0,0,0,.686.182,10.058,10.058,0,0,0,1.43.2c.691.064,1.382.1,2.073.107l1.66-.054-1.7.064a20.683,20.683,0,0,1-2.073-.118,9.653,9.653,0,0,1-1.43-.2,3.966,3.966,0,0,1-.68-.182c-.214-.07-.412-.145-.595-.214-.284-.037-.536-.075-.825-.112A25.99,25.99,0,0,1,15.2,45.76c-.375-.145-.771-.343-1.13-.509-.107-.037-.23-.091-.337-.129-.107-.054-.214-.107-.305-.161-.2-.107-.4-.22-.573-.311-.257-.139-.477-.273-.675-.375Zm.466,0h.273c.07.048.145.1.22.139.412.2.825.418,1.237.584a3.8,3.8,0,0,1,.487.252c.23.107.5.22.75.348.359.161.718.289,1.077.434s.734.252,1.093.38l.461.091.22.075,3.021.664-.064.016a1.213,1.213,0,0,1-.375-.048c-.252-.037-.536-.07-.809-.107-.252-.054-.536-.129-.787-.182-.107-.037-.214-.075-.337-.107s-.252-.075-.4-.112l-.862-.171-.161-.064c-.359-.123-.734-.236-1.093-.38s-.718-.273-1.077-.434c-.268-.129-.52-.236-.75-.348a2.8,2.8,0,0,1-.5-.2c-.429-.166-.825-.38-1.237-.578-.129-.075-.257-.161-.386-.252ZM12.491,44l-.059-.032-.2-.123c-.23-.145-.466-.311-.7-.471a.949.949,0,0,0-.305-.295l-.161-.112a4.964,4.964,0,0,1,.911.691C12.153,43.767,12.319,43.885,12.491,44Zm-1.43-1.039a.849.849,0,0,0-.177-.1c-.284-.22-.589-.439-.878-.675a.782.782,0,0,0-.161-.23l.359.316c.284.236.568.45.857.686ZM9.5,41.673c-.048-.032-.086-.059-.123-.086l-.005-.005c.032.021.075.054.129.091ZM7.343,39.552c-.075-.091-.145-.177-.22-.262A3.168,3.168,0,0,1,7.343,39.552Zm-.423-.514c-.043-.054-.08-.1-.123-.15C6.84,38.936,6.877,38.989,6.92,39.038ZM5.693,37.147a.447.447,0,0,0-.043-.064l-.187-.268L5.4,36.7a5.577,5.577,0,0,1-.375-.653c-.284-.509-.5-1.018-.734-1.543-.214-.525-.45-1.055-.718-1.65a6.117,6.117,0,0,0-.209-.675l-.07-.262.525,1.446a23.51,23.51,0,0,0,1.1,2.282l.161.257h0a3.947,3.947,0,0,0,.375.653,3.405,3.405,0,0,1,.241.4ZM44.142,11.623v-.193a.565.565,0,0,1,.037.059l.193.268.059.112a5.7,5.7,0,0,1,.38.653c.284.509.5,1.018.734,1.548.214.525.445,1.05.712,1.65.032.166.139.439.214.675l.07.262-.525-1.452a24.082,24.082,0,0,0-1.1-2.276l-.161-.257-.005-.005a3.785,3.785,0,0,0-.375-.653,3.789,3.789,0,0,1-.236-.391ZM43.033,9.69c-.037-.054-.08-.1-.118-.15A1.613,1.613,0,0,1,43.033,9.69Zm-.327-.407c-.075-.086-.15-.166-.22-.257C42.562,9.111,42.637,9.2,42.706,9.283Zm1.436,1.569v-.011c.177.22.343.45.5.686.075.129.166.252.236.4s.161.295.23.439a4.085,4.085,0,0,0,.487.707l.005.021-.471-.691c-.091-.15-.161-.295-.236-.439s-.161-.273-.23-.4c-.171-.241-.343-.482-.525-.712ZM37.618,4.3c-.2-.1-.418-.23-.675-.375-.177-.091-.375-.2-.573-.305-.107-.054-.2-.112-.305-.166a2.1,2.1,0,0,0-.337-.129c-.359-.177-.755-.359-1.13-.5A25.845,25.845,0,0,0,31.479,1.6c-.289-.032-.541-.07-.825-.107-.182-.075-.38-.145-.595-.22a4.524,4.524,0,0,0-.68-.182,10.846,10.846,0,0,0-1.436-.2c-.686-.064-1.377-.1-2.068-.107L24.211.841l1.7-.064C26.6.782,27.29.82,27.981.889a10.608,10.608,0,0,1,1.436.2,4.7,4.7,0,0,1,.68.182c.214.075.412.145.589.22.289.037.541.075.825.107a26.938,26.938,0,0,1,3.117,1.221c.38.145.771.343,1.13.5.107.037.236.091.343.129.107.054.214.112.305.166.193.107.391.214.573.305.257.145.477.279.67.375ZM41.18,7.087l.011.011a.005.005,0,0,1-.005.005H41.18V7.087Zm2.962,3.08v-.107c.129.2.273.412.418.611a7.083,7.083,0,0,1,.659,1.146,5.665,5.665,0,0,1,.52.852c.166.273.327.6.487.873.07.112.123.22.177.327s.091.22.145.311c.091.2.161.4.236.578a5.379,5.379,0,0,0,.5,1.109,2.666,2.666,0,0,1,.2.745c.2.493.321.98.482,1.489-.07.145.182.728.22,1.162.107.455.193.927.284,1.4l.064.246-.048.011a2.983,2.983,0,0,1,.021.455l.011.032h-.037l.005-.091a4.21,4.21,0,0,0-.016-.45,2.279,2.279,0,0,0-.07-.273c-.145-.236-.289-.471-.434-.691a4.982,4.982,0,0,0-.107-.6l-.107-.2c-.054-.295-.107-.562-.177-.873-.075-.236-.129-.455-.2-.691a6.12,6.12,0,0,0-.214-.67c-.037-.182-.075-.348-.129-.53a2.871,2.871,0,0,0-.139-.541l.112.177.1.386a5.2,5.2,0,0,0,.086.541c.075.22.145.455.22.675.07.236.123.455.193.691.075.289.112.562.182.873l.107.2c.054.2.07.38.107.6.145.236.289.45.429.691-.086-.477-.177-.927-.284-1.4-.037-.434-.289-1.034-.214-1.162-.161-.5-.305-1-.487-1.489l-.1-.15-.037-.225a1.186,1.186,0,0,0-.134-.386,4.181,4.181,0,0,1-.5-1.109c-.07-.182-.139-.38-.23-.578a2.33,2.33,0,0,0-.145-.311,3.255,3.255,0,0,0-.177-.327c-.161-.289-.321-.6-.487-.873a5.665,5.665,0,0,0-.52-.852,6.279,6.279,0,0,0-.659-1.146c-.107-.145-.214-.3-.311-.45ZM42.015,42.278c-.161.182-.321.348-.482.53l-.043.032.525-.562ZM40.74,43.371l.637-.718.027.005-.6.68Zm-.193-.166c.054.075.139.107.193.166A1.486,1.486,0,0,0,40.548,43.2Zm-1.307,1.071h1.007c.236-.2.477-.38.691-.578.236-.22.466-.439.7-.637.23-.22.429-.434.643-.637l.305-.305c.091-.112.2-.22.289-.327-.021-.037-.2.07-.112-.145-.123.107-.246.214-.354.327-.145.107-.273.214-.4.305.123-.107.252-.2.375-.305s.236-.22.359-.327c.129-.166.268-.327.4-.493s.252-.343.375-.509c-.054-.054-.236.037-.466.311l-.021.027-.214.048a3.724,3.724,0,0,0-.482.45c-.23.2-.482.38-.664.546s-.284.305-.284.4a1.777,1.777,0,0,1-.161.2c-.236.2-.434.38-.68.578-.418.364-.857.734-1.307,1.071Zm1.918-1.146-.07.059-.021.011Zm1.462-1.66-.675.809.536-.653Zm-33.97,0h0l.005.016-.011-.005C8.645,41.475,8.645,41.469,8.65,41.469Zm32.219-.407-.037.043V41.1Zm-36.831-3.3.011.005.193.477Zm.187-2.276.477.7a4.252,4.252,0,0,1,.23.434c.091.145.161.273.236.4.171.241.337.482.525.707v.016c-.177-.22-.343-.455-.509-.686-.07-.129-.161-.257-.23-.4s-.161-.289-.236-.434a4.1,4.1,0,0,0-.482-.707Zm-1.853-.246a4.164,4.164,0,0,0,.23.707,5.746,5.746,0,0,0,.412.761c.145.295.289.562.412.782a3.557,3.557,0,0,0,.38.493l-.252-.509c-.054-.166-.145-.327-.214-.509-.075-.112-.107-.182-.166-.273-.07-.129-.139-.236-.214-.364s-.123-.236-.193-.364c-.129-.236-.273-.471-.4-.723Zm1.157-1.559.439.777.005.016-.439-.782Zm-2.368-4.44.005.032-.048.064c-.054.054-.107.123-.161.182-.037-.037-.075-.075-.107-.075l-.005-.016.075.054A.742.742,0,0,0,1.1,29.31Zm.161-2.062H1.36l-.011.086a3.24,3.24,0,0,0,.021.455,1.576,1.576,0,0,0,.07.273c.145.236.284.471.429.691.037.214.054.4.107.6l.107.2c.054.289.107.562.182.873.07.236.123.45.2.686a6.216,6.216,0,0,0,.214.675,4.649,4.649,0,0,0,.123.525,3.432,3.432,0,0,0,.145.546L2.833,32.6l-.1-.38a5.532,5.532,0,0,0-.091-.546c-.07-.22-.145-.455-.214-.67-.07-.236-.123-.455-.2-.691-.07-.289-.107-.562-.177-.873l-.107-.2a4.982,4.982,0,0,1-.107-.6c-.145-.236-.289-.455-.434-.691.091.471.182.927.289,1.4.032.439.284,1.034.214,1.162.161.509.305,1,.482,1.489l.1.15.043.23a1.2,1.2,0,0,0,.129.386,3.918,3.918,0,0,1,.5,1.1c.075.182.145.386.236.584a2.227,2.227,0,0,0,.139.311,2.9,2.9,0,0,0,.182.327c.161.289.321.595.482.868a6.765,6.765,0,0,0,.52.857,6.629,6.629,0,0,0,.664,1.141c.107.15.209.3.311.45v.112c-.134-.2-.273-.412-.418-.616a7.325,7.325,0,0,1-.664-1.146,6.352,6.352,0,0,1-.52-.852c-.161-.273-.321-.6-.482-.873a2.191,2.191,0,0,1-.182-.327c-.054-.107-.086-.214-.139-.305-.091-.2-.166-.4-.236-.584a5.535,5.535,0,0,0-.5-1.109,2.639,2.639,0,0,1-.193-.745c-.2-.487-.327-.98-.487-1.489.075-.145-.177-.723-.214-1.162-.107-.45-.2-.927-.284-1.4l-.064-.246.043-.005a3.969,3.969,0,0,1-.016-.455l-.011-.032ZM9.047,42.428c.048.032.091.064.139.1a1.016,1.016,0,0,1-.112-.054l-.064-.021c-.037-.027-.075-.054-.118-.08a1.1,1.1,0,0,1-.161-.155l-.1-.064L8.57,42.1c.059.037.118.08.182.123a2.124,2.124,0,0,1,.193.182.178.178,0,0,1,.1.027ZM.776,26.605a1.225,1.225,0,0,1,.107.236l.027.5c0,.139,0,.273.011.466l.177.557v.064l-.214-.621c-.016-.38,0-.546-.032-.964l-.086-.182Zm.771-.782.118.284.043.407.059-.187.021.027-.064.2c.021.091.021.182.037.289a.646.646,0,0,0-.07.236H1.633l.037-.123c-.016-.112-.016-.2-.032-.295C1.6,26.407,1.585,26.118,1.548,25.823ZM.042,25.336c-.016.016-.016.016-.037.016,0,.311.021.562.021.766S0,26.477,0,26.643a4.864,4.864,0,0,0,.054.964,2.805,2.805,0,0,0,.054.541c.054.236.107.53.161.8.021.214.021.45.054.67.129.4.145.728.273,1.237.086.359.161.723.252,1.071.214.214.193-.112.445.2a.2.2,0,0,0-.037-.107,1.942,1.942,0,0,0-.07-.766c-.091-.252-.2-.525-.268-.8l-.214-.129h0C.546,29.6.6,29.439.471,28.951c-.032-.22-.086-.439-.123-.659s-.075-.45-.107-.67-.054-.434-.091-.637c-.016-.2-.037-.4-.037-.6a2.322,2.322,0,0,0-.016-.5C.08,25.791.08,25.7.058,25.609c0-.091-.016-.182-.016-.273Zm40.6-19.288a.917.917,0,0,1,.118.048l.059.021.118.086a.737.737,0,0,1,.161.155c.037.021.07.037.1.059l.059.064c-.054-.037-.112-.08-.177-.123a2.222,2.222,0,0,1-.2-.182.237.237,0,0,1-.1-.027c-.048-.032-.1-.07-.145-.1ZM14.649,2.759a7.648,7.648,0,0,0-.916.418.864.864,0,0,0-.391.327c.337-.182.643-.305.873-.434a1.436,1.436,0,0,0,.434-.311Zm2.973-1.323A2.319,2.319,0,0,0,16.9,1.6c-.3.129-.643.311-1,.509A5.641,5.641,0,0,0,17.622,1.436ZM28.41,1.312a1.426,1.426,0,0,1,.38.048c.252.037.536.075.8.112.252.054.541.123.787.182.112.032.22.07.343.107s.252.07.4.107l.862.171.155.064c.359.129.739.236,1.093.386s.718.268,1.077.434c.268.129.52.236.755.343a2.787,2.787,0,0,1,.5.2c.434.161.825.38,1.237.578.134.075.262.161.391.246h-.273c-.075-.043-.145-.091-.225-.139-.412-.2-.825-.418-1.237-.578a4.581,4.581,0,0,1-.482-.257c-.23-.107-.5-.214-.755-.343-.354-.161-.712-.289-1.071-.434s-.734-.257-1.093-.386l-.461-.091-.225-.075-3.016-.659.059-.021ZM40.462,7a1.133,1.133,0,0,1-.129-.1c.043.032.086.064.118.086Zm-.477-.38L39.632,6.3c-.284-.236-.573-.455-.857-.691a1.287,1.287,0,0,0,.171.1c.289.22.595.434.878.67A.941.941,0,0,0,39.985,6.615ZM38.769,5.608a4.942,4.942,0,0,1-.911-.686c-.182-.118-.343-.23-.52-.343l.064.027.2.129c.236.145.466.305.7.471a.939.939,0,0,0,.305.289c.054.037.107.08.161.112ZM22,.921c-.123.011-.257.021-.386.043a.94.94,0,0,0-.52.182c.107-.021.214-.037.4-.059A7.14,7.14,0,0,0,22.32.927,1.966,1.966,0,0,0,22,.921ZM19.92.782c-.252.016-.487.037-.739.054a8.96,8.96,0,0,0-.895.364c.429-.054.825-.145,1.109-.2S19.883.852,19.92.782ZM7.82,6.294c.161-.182.321-.343.482-.525l.043-.037ZM9.089,5.206l-.632.712-.032-.005.605-.675.059-.032Zm.2.161c-.054-.07-.145-.107-.2-.161A2.143,2.143,0,0,0,9.288,5.367ZM10.595,4.3H9.582c-.23.2-.477.386-.691.584-.23.22-.466.434-.7.637s-.429.434-.643.632c-.112.112-.22.22-.305.311-.091.107-.2.22-.289.327.016.037.2-.075.107.145.129-.107.252-.22.359-.327.145-.107.268-.22.4-.311-.129.112-.252.2-.38.311s-.23.22-.354.327c-.129.166-.273.327-.4.493s-.252.343-.375.509c.054.054.23-.037.466-.311L6.8,7.6l.214-.048a3.446,3.446,0,0,0,.477-.45c.236-.2.487-.386.664-.546s.289-.311.289-.4a2.38,2.38,0,0,1,.161-.2c.23-.2.429-.38.68-.584.418-.364.857-.728,1.307-1.071ZM8.677,5.442l.064-.059.027-.011ZM7.215,7.1l.675-.8-.536.648Zm1.752.412L9,7.472,9,7.478ZM45.8,10.82l-.011-.005-.2-.477Zm1.666,2.523a4.052,4.052,0,0,0-.236-.707,5.22,5.22,0,0,0-.412-.766c-.145-.289-.284-.562-.412-.782a3.487,3.487,0,0,0-.375-.487l.252.509c.054.161.145.327.214.509.07.107.107.182.161.273.07.123.145.236.214.359s.129.241.2.364c.123.236.268.471.4.728ZM46.3,14.9l-.434-.777-.011-.021.439.782.005.016Zm2.368,4.44-.005-.032.054-.064c.054-.054.107-.129.161-.182.037.037.07.075.107.075l.005.011-.075-.048a.755.755,0,0,0-.182.161Zm.386,2.625a1.715,1.715,0,0,1-.107-.236l-.021-.493c-.005-.139-.005-.279-.011-.466l-.182-.562v-.064l.214.627c.021.38,0,.541.037.959l.086.187-.016.048Zm-.766.782-.118-.279-.048-.412-.054.193-.021-.027.059-.2c-.016-.091-.016-.182-.037-.295a.763.763,0,0,0,.075-.236l.054.005-.038.123c.021.107.021.2.038.289.037.257.054.546.091.836Zm1.505.493c.016-.021.016-.021.032-.021,0-.305-.016-.562-.016-.761s.016-.364.016-.525a4.488,4.488,0,0,0-.054-.964,2.189,2.189,0,0,0-.054-.546c-.054-.236-.107-.525-.161-.8-.016-.22-.016-.455-.054-.67-.123-.4-.145-.728-.268-1.237-.091-.364-.161-.728-.252-1.071-.214-.22-.2.107-.45-.2a.286.286,0,0,0,.037.107,1.943,1.943,0,0,0,.075.761c.086.257.193.53.268.8l.214.123h0c.161.728.107.895.23,1.382.037.22.091.434.129.653s.07.455.107.675.054.434.091.632c.016.2.032.4.032.6a2.409,2.409,0,0,0,.021.509c.016.091.016.182.032.273,0,.091.021.182.021.273ZM35.186,45.813A6.141,6.141,0,0,0,36.1,45.4a.8.8,0,0,0,.4-.327c-.343.182-.643.311-.878.439a1.481,1.481,0,0,0-.429.305Zm-2.978,1.328a2.179,2.179,0,0,0,.718-.166,9.9,9.9,0,0,0,1.007-.509,5.645,5.645,0,0,0-1.725.675Zm-4.376.509c.123-.005.257-.021.38-.037a.965.965,0,0,0,.52-.182c-.107.016-.214.038-.391.054a8.4,8.4,0,0,0-.825.166A3.076,3.076,0,0,0,27.832,47.651Zm2.084.145c.252-.021.482-.037.734-.054a9.045,9.045,0,0,0,.9-.364c-.434.054-.825.145-1.114.2-.284.075-.482.145-.52.22Z" transform="translate(0.001 0)" fill="#0c5adb" fill-rule="evenodd"/>
    </g>
    <ellipse id="Elipse_3" data-name="Elipse 3" cx="11.635" cy="11.705" rx="11.635" ry="11.705" transform="translate(13.283 12.581)" fill="none" stroke="#fff" stroke-miterlimit="22.926" stroke-width="0.74"/>
    <path id="Caminho_1177" data-name="Caminho 1177" d="M37.108,45.512l-.056-.643c-.24.076-.362.182-.541.248a4.17,4.17,0,0,0-.6.223l.077.284C36.363,45.6,36.741,45.568,37.108,45.512Zm3.006-19-.02.1Zm-5.149-1.97.01.01Zm2.562,4.614-.026.015h0Zm-3.143-2.983-.02-.02c-.005.035-.005.066-.01.1a1.13,1.13,0,0,1,0,.132.374.374,0,0,0,.015.127h.005c.01.015.01-.061.015-.066a.287.287,0,0,0-.005-.066v-.208Zm2.7,2.862a.356.356,0,0,1-.066-.025l-.031.02h0c.01-.01.026-.015.036-.025a.355.355,0,0,0,.066.025c.005,0,.01.005.015.005h.158a.91.91,0,0,1,.117.005c.046,0,.092-.01.133-.01h.02a.635.635,0,0,0,.092-.01c.036-.005.077-.005.138-.015.015,0,.036-.005.051-.005A.065.065,0,0,1,37.843,29l.071-.015.056-.015.061-.015a.8.8,0,0,0,.107-.02l-.01.005-.107.02-.056.015a.258.258,0,0,1-.061.01c-.02.01-.041.01-.066.02a.087.087,0,0,0-.036.005c-.015,0-.031.005-.051.005a.27.27,0,0,1-.087.02.608.608,0,0,1-.133.02c0-.01-.005-.01-.01-.02h-.015a1.172,1.172,0,0,1-.138.01H37.1C37.093,29.042,37.088,29.037,37.082,29.037Zm-.1-.005a.655.655,0,0,0,.1.005A.655.655,0,0,1,36.98,29.032Zm.7-5.617h-.138l.041.005.036.01-.036-.005a.15.15,0,0,0-.046-.01h-.6a2.385,2.385,0,0,0-.332.056h-.031a.1.1,0,0,0-.041.01l-.061.02-.02.005a2.493,2.493,0,0,0-.582.233h-.005l-.026.01a.071.071,0,0,0-.046.02c-.01.005-.02.015-.036.025l-.026.025-.005.005a.468.468,0,0,0-.071.035c-.02.01-.041.025-.061.035l-.036.035-.056.035a.981.981,0,0,0-.087.066c-.026.02-.056.041-.082.061a.376.376,0,0,0-.061.066.267.267,0,0,0-.056.051c-.02.015-.036.035-.056.051v0c-.015.015-.031.025-.046.041a.491.491,0,0,1-.036.046l-.066.071.005-.015c0-.01-.015-.005-.005-.03a.774.774,0,0,1-.066.076c-.01.025-.02.046-.031.071-.005,0-.005.01-.01.01,0-.015-.02.005-.036.015a.445.445,0,0,0-.031.051c-.01.015-.02.041-.036.071a.673.673,0,0,1-.051.056c-.015.035-.061.091-.061.122-.015.03-.031.061-.046.1s-.036.066-.056.1a.467.467,0,0,1-.026.051.253.253,0,0,1-.026.066l-.015.086h0c-.015.035-.026.071-.041.106s-.015.076-.026.106a.371.371,0,0,0-.02.071.115.115,0,0,1-.005.056l-.005.051-.01.02c-.005-.041.02-.1.01-.122-.01.01-.031.061-.046.086s-.01.071-.015.127c0,.01-.005.02-.005.035-.026.03-.02.116-.026.152a.181.181,0,0,1,.01.056.474.474,0,0,0-.015.1,1.189,1.189,0,0,0-.01.39.331.331,0,0,0,.02.076c.005.035.005.066.01.1s.01.066.015.1a.1.1,0,0,0,.005.086.5.5,0,0,1,.031.1.225.225,0,0,0,.051.116c.005.015.01.035.015.051h.01l.02.056c.01.025-.01-.051,0-.02a.348.348,0,0,1,.036.076c.015.025.026.046.031.046a.115.115,0,0,0-.015-.056.755.755,0,0,1-.046-.111H34.5l-.005-.041c-.01-.066-.046-.162-.051-.218-.01-.035-.02-.066-.031-.1a.893.893,0,0,0-.015-.1,1.03,1.03,0,0,1-.026-.122h-.005a.374.374,0,0,1-.015-.127.566.566,0,0,0,0-.132.619.619,0,0,0,.01-.1v-.192c0-.01.005-.02.005-.03s.005-.035.005-.051c.01-.03.015-.066.026-.1s.01-.056.015-.086l.005.015-.015.066a.841.841,0,0,1-.026.091.206.206,0,0,1-.005.056v.03a1.014,1.014,0,0,0-.005.116.333.333,0,0,0,.005.076l.015.02c0-.02.005-.046.005-.066a.44.44,0,0,1,.01-.081c0-.03.005-.061.005-.086v-.005l.005.03c.026-.086.02.025.031.041a.07.07,0,0,1,.015.02L34.47,26v.01l-.005.015a.356.356,0,0,0-.005.076v.056l-.005.02a.075.075,0,0,0-.005.035.33.33,0,0,0-.01.1c0,.02.005.046.005.066a.436.436,0,0,0,.01.051h.01a.254.254,0,0,1,.036.041c.005.015.01.03.015.051s.01.03.015.051a.631.631,0,0,1,.01.076h.015a.679.679,0,0,1,.015.091.288.288,0,0,0,.02.071.44.44,0,0,0-.01-.081c-.005-.03-.005-.056-.01-.081a.075.075,0,0,1-.005-.03v-.005l.026.162a1.489,1.489,0,0,0,.061.228l.01.041.041.127c.015.046.031.086.046.127l.041.066.031.071.02.035.005.041-.005-.01a.192.192,0,0,0-.015-.051c-.02-.035-.031-.066-.046-.091a.361.361,0,0,0-.041-.076.98.98,0,0,1,.041.111c.015.035.036.071.051.106l.046.091c.015.035.036.066.051.1h.005a.341.341,0,0,0,.036.086.71.71,0,0,0,.061.091l.036.02v.005c.01.01.02.025.031.035-.031-.015.005.025.005.041a.975.975,0,0,1,.071.076l.02.02.01.02c.036.041.066.076.1.111.02.035.056.046.066.061a.542.542,0,0,1,.056.046c.02.015.041.035.061.051a.692.692,0,0,1,.107.111c-.015-.005-.031-.01-.051-.015-.005,0-.005.005-.01.005a.446.446,0,0,0,.051.041c.082.061.066.02.133.056.026.02.056.035.087.056a.916.916,0,0,1,.1.056.12.12,0,0,1,.071.035,1.056,1.056,0,0,0,.092.056c-.01.005-.015.005-.026.01l-.071-.041a.559.559,0,0,1-.077-.041,0,0,0,0,1-.005.005c.01.01.015.025.026.035a1.3,1.3,0,0,0,.117.061h.036l.117.061.077.015a.155.155,0,0,0,.036.025.665.665,0,0,0,.117.035,1.557,1.557,0,0,0,.23.061c.02.005.041.005.061.01s.041.005.061.01l.066.015.082.015.066.01h0c0,.005,0,.005-.005.005-.026-.005-.046-.005-.071-.01H36.9l-.077-.015L36.756,29c-.02-.005-.041-.005-.061-.01s-.036-.005-.056-.01a.894.894,0,0,1-.235-.061c-.056-.01-.087-.025-.117-.03l-.031-.03-.082-.015c-.005,0-.005.005-.015.015.036.015.071.03.112.046a.8.8,0,0,1,.107.041c.031.015.061.025.087.041a.347.347,0,0,1,.071.01l.082.015c.061.015.128.025.214.041h.005l.107.02.005-.005-.026.03a.15.15,0,0,0,.046.01c.02,0,.036.005.051.005a.656.656,0,0,1,.1.005,1.349,1.349,0,0,0,.138-.005.239.239,0,0,1,.046-.015c.026,0,.046-.005.051,0s.005.01.01.015h.046a2.86,2.86,0,0,0,1.1-.273,1.238,1.238,0,0,1,.117-.061,1147.35,1147.35,0,0,1,.133-.071,1.057,1.057,0,0,0,.128-.076.589.589,0,0,0,.1-.076c.066-.046.128-.1.194-.147.015-.015.036-.03.051-.046s.036-.03.051-.046a.476.476,0,0,0,.077-.066.3.3,0,0,0,.031-.056l.046-.041v.005l-.046.041a.551.551,0,0,0-.031.056.885.885,0,0,1-.077.066.459.459,0,0,0-.051.046l-.056.041c-.061.056-.128.1-.189.152a.886.886,0,0,1-.1.076c-.041.025-.087.051-.128.076-.026.015-.051.025-.071.035a.276.276,0,0,1-.066.035c-.041.02-.082.041-.117.061a2.433,2.433,0,0,1-.444.167,2.665,2.665,0,0,1-.653.106.07.07,0,0,1-.015.02c-.005.005-.005.005-.005.01h.071c.026,0,.046-.005.071-.005a.622.622,0,0,0,.1.005c.026-.005.046-.005.066-.01a.947.947,0,0,0,.128-.025c.036-.01.061-.015.087-.02h.056a.25.25,0,0,0-.061.005.313.313,0,0,0-.087.015l-.128.03-.066.005h-.24c-.005.005-.015.01-.02.015.015,0,.031.005.046.005a.039.039,0,0,1-.01.015v.005a.265.265,0,0,0,.056.01l.051-.01h.056a.211.211,0,0,0,.056-.005.184.184,0,0,0,.056-.02h.036c.026.005.02.01.041.015.061-.015.122-.025.179-.035v-.005L38,29.118c.02,0,.031,0,.031.005.02-.005.046-.01.077-.02.015-.005.031-.01.051-.015l.061-.025.005.005.092-.046c0-.01.005-.02.005-.03l-.031.015c-.01.005-.026.005-.036.01a.254.254,0,0,1-.066.02.011.011,0,0,1-.01-.01c-.01,0-.02.005-.031.005s-.026.005-.041.01l-.071.02v-.005a.41.41,0,0,0,.077-.015.121.121,0,0,1,.041-.01l.031-.005.01.01a.332.332,0,0,1,.066-.02.073.073,0,0,1,.031-.01.25.25,0,0,0,.036-.015.072.072,0,0,0-.01.03.209.209,0,0,0,.1-.046c-.01-.005-.015-.005-.026-.01l.046-.03h.01l.163-.071.005-.005.036-.005a.405.405,0,0,1,.046-.02.16.16,0,0,1,.051-.025.238.238,0,0,0,.077-.061c0-.005-.005,0-.02.005l-.026.01v-.005l.026-.01c.01,0,.02-.005.015,0a.242.242,0,0,0,.061-.035.282.282,0,0,1,.041-.03l.041-.03.015-.01.041-.025v-.005l.041-.015a.144.144,0,0,0,.056-.035.191.191,0,0,0,.071-.071c-.026.02-.056.041-.087.066l-.077.056h0l.077-.061c.031-.02.061-.041.087-.061l.036-.046.005-.005a.965.965,0,0,0,.107-.1.914.914,0,0,0,.1-.1l.005-.005.02-.02h0l.041-.03a.415.415,0,0,0,.041-.046c.02-.03.082-.086.087-.132-.01-.01-.082.091-.112.127l-.026.03.026-.03c.031-.041.1-.142.112-.127l.056-.071-.005.005c.015-.02.036-.041.051-.061a.741.741,0,0,0,.046-.066l.031-.056c.01-.02.015-.041.026-.061a.29.29,0,0,0,.02-.035c.01-.015.015-.025.026-.041a.151.151,0,0,0,.02-.041c.015-.03.036-.056.051-.086a.2.2,0,0,0,.026-.071.222.222,0,0,0-.036.02c-.005.005-.01.01-.01.015v-.005l.005-.01.036-.02a.669.669,0,0,0,.071-.192.019.019,0,0,1-.015.005.479.479,0,0,1-.046.106l.046-.106c.005,0,.005,0,.01-.005.01-.03.026-.066.036-.1,0-.005.005-.01.005-.015a.279.279,0,0,1,.01-.086c.01-.03.02-.066.031-.1.01-.005.015-.01.026-.015h0V26.92c.015-.081.015-.1.026-.152l.015-.076a.555.555,0,0,0,.015-.081c.005-.025.005-.051.01-.071a.309.309,0,0,1,.005-.071.242.242,0,0,1,0-.061.064.064,0,0,0,.005-.03v-.03l-.015-.015a.147.147,0,0,1-.01.046.348.348,0,0,1-.015.041.332.332,0,0,1-.005.071v.035l-.005.035-.01.005V26.56l.01-.005a.1.1,0,0,1,.005-.035v-.035a.332.332,0,0,0,.005-.071.347.347,0,0,0,.015-.041c.005-.015.005-.03.01-.046a.546.546,0,0,0-.005-.091.222.222,0,0,1-.036.02h-.02c-.01,0-.015-.005-.02.061v.01l-.015.046v.015h-.015a.287.287,0,0,1-.041-.066.3.3,0,0,1-.01-.061c-.01-.005-.015-.01-.026-.015l-.026-.005v-.015a2.693,2.693,0,0,0-1.2-2.244l-.031-.02h-.005l-.061-.046c-.041-.025-.082-.051-.117-.076-.015-.01-.056-.03-.092-.051l-.031-.015a.039.039,0,0,0-.026-.01c-.015-.01-.031-.015-.036-.025a.532.532,0,0,1-.051-.02.354.354,0,0,0-.051-.02c-.02-.01-.041-.015-.061-.025H38.22l-.005-.015a.257.257,0,0,0-.066-.025l-.031-.005h0l-.036-.01-.041-.01-.077-.025a.481.481,0,0,1-.082-.02l-.082-.015-.077-.015c-.015-.005-.026-.005-.046-.01a.509.509,0,0,1-.1-.015l-.051-.01a.25.25,0,0,1-.061.005h0l.056-.005a1.136,1.136,0,0,1-.128-.025c.02-.01-.036-.015-.015-.02l.036-.015h.209a.185.185,0,0,1,.056.01.258.258,0,0,1,.061.01l.056.015a.065.065,0,0,1,.031.005.065.065,0,0,0,.031.005c.026.005.056.005.087.01,0-.005.005-.01,0-.015a0,0,0,0,0,.005-.005.151.151,0,0,1-.051-.015l-.087-.015c-.036-.01-.026.01-.056.01-.015-.005-.026-.015-.041-.02a.353.353,0,0,0-.041-.015Zm.077,5.6c-.031.005-.056.015-.087.02s-.071.01-.138.015a.019.019,0,0,0-.005-.015.792.792,0,0,0,.1-.01C37.654,29.017,37.7,29.017,37.756,29.011Zm.235-.025-.005.005h0Zm-1.669-.03a.676.676,0,0,1,.092.025h.041c.041.02.077.041.112.056.015.005.036.005.051.01l.005.005.01-.015.046.015c.015.005.031.005.046.01l.087.02h0a.617.617,0,0,1,.1.015.182.182,0,0,1,.051.01h.051c.026,0,.061.005.1.005a1.242,1.242,0,0,0,.138,0h.005l.015-.01a.106.106,0,0,0,.031-.01h.026a.038.038,0,0,1,.026.005l.005.015H37.4c-.005.005-.01.015-.015.02l-.01.01a.112.112,0,0,1-.026.015H37.3a.293.293,0,0,0-.066-.005,1.4,1.4,0,0,0-.143-.005c-.036-.005-.071-.005-.107-.01a.566.566,0,0,1-.092-.01l-.092-.015c-.051-.01-.1-.015-.143-.02a.741.741,0,0,1-.112-.035v-.005l-.066-.02a.5.5,0,0,1-.056-.025.332.332,0,0,1-.066-.02c-.02-.005-.046-.015-.066-.02,0-.01.01-.01.031-.01Zm1.25-.046-.031.005-.225.01.071.01a.031.031,0,0,0,.02-.005l.133-.015h.02Zm.2-.03-.112.015.041.005a.443.443,0,0,0,.051-.01l.02-.01Zm.4-.005-.347.091.179-.035Zm-2.22-.041c.112.041.184.076.245.1.026.01.056.02.087.03s.046.015.066.02a.254.254,0,0,0,.066.02.5.5,0,0,0,.056.025c-.005.005-.01.01-.015.01a.065.065,0,0,1-.031-.005,1.2,1.2,0,0,1-.122-.046l-.061-.02c-.015-.01-.041-.015-.056-.025-.031-.01-.056-.02-.082-.03s-.046-.015-.066-.025a.557.557,0,0,1-.056-.03.194.194,0,0,1-.031-.025Zm.1-.056.117.061c-.005,0-.005.005-.015.01-.041-.025-.092-.046-.133-.066a.065.065,0,0,0,.031-.005Zm-.429-.142a.828.828,0,0,1,.143.081c.01.01.036.03.031.03a.2.2,0,0,1-.066-.035.223.223,0,0,1-.051-.03A.331.331,0,0,1,35.628,28.637Zm.25-.056h0l.01.01v-.005l-.01-.005Zm3.113-.137h-.01a1.38,1.38,0,0,1-.128.091.775.775,0,0,1-.128.066c-.026.02-.056.035-.087.056a.532.532,0,0,1-.051.02.353.353,0,0,0-.051.02.225.225,0,0,1-.061.03c-.02.01-.046.02-.046.03a.356.356,0,0,0-.066.025c-.026.01-.051.015-.071.025l-.02.02c-.01.005-.02.005-.031.01a.4.4,0,0,1-.071.01.423.423,0,0,1-.1.03c-.031.01-.061.02-.087.03s-.061.015-.1.025-.071.02-.117.03a.555.555,0,0,0-.168.025C37.6,29,37.6,29,37.6,29l-.082.02h.005L37.608,29v-.005a.468.468,0,0,1,.168-.025q.069-.015.122-.03c.031-.01.066-.015.1-.025s.056-.02.087-.03a.483.483,0,0,0,.092-.03.4.4,0,0,0,.077-.01l-.051.03h0c.02-.01.041-.025.056-.03l.031-.015h0l.015-.01a.356.356,0,0,1,.066-.025.751.751,0,0,1,.071-.03c0-.01.02-.015.046-.025a.242.242,0,0,0,.061-.035.214.214,0,0,0,.051-.02l.036-.015.015-.01c.031-.02.061-.035.092-.056a.619.619,0,0,0,.128-.066l.122-.086Zm-3.654-.03.01.005v.005ZM39,28.358Zm.046-.03-.01.01h0l.005-.005.005-.005Zm-3.883-.106.082.091-.066-.076Zm4.036,0h0v.01a.23.23,0,0,0-.036.035c-.01.01-.02.025-.041.046h0l.041-.041c.01-.01.015-.02.036-.041v-.01Zm-3.827-.051.005.005h0Zm.015.273-.077-.086h0l.066.081Zm.026-.02a.051.051,0,0,0-.026.02A.051.051,0,0,1,35.414,28.424Zm-.179-.111c.02.025.041.041.061.066H35.3Zm-.179-.187c.01-.005.031.005.056.035l.005.005.026.005a.375.375,0,0,1,.056.051c.026.025.056.046.077.066a.085.085,0,0,1,.036.046c.005.005.01.015.02.02.026.025.051.046.082.071a2.081,2.081,0,0,0,.2.157.174.174,0,0,1-.041.015c.01,0,.01.005.015.01h-.061c-.01-.01-.026-.015-.036-.025s-.026-.02-.036-.025l-.092-.076c-.026-.025-.051-.051-.082-.076a.977.977,0,0,0-.077-.071.235.235,0,0,0-.036-.035c-.01-.015-.026-.025-.036-.041.005-.005.026.01.015-.015a.291.291,0,0,1,.041.035.28.28,0,0,0,.046.035.137.137,0,0,1-.041-.035c-.015-.01-.031-.025-.046-.035a.539.539,0,0,0-.046-.056Zm4.689-.334h0l-.026.056Zm-.02-.268-.056.081a.444.444,0,0,1-.031.051.182.182,0,0,1-.026.046,1.027,1.027,0,0,1-.066.091c-.02.025-.036.056-.056.086a.573.573,0,0,0-.051.066l-.005.005-.005.005.005-.005a.574.574,0,0,0,.051-.066l.061-.091c.02-.025.041-.056.066-.086a.2.2,0,0,1,.026-.046.236.236,0,0,0,.026-.051.374.374,0,0,1,.061-.081v-.005Zm.219-.025a.716.716,0,0,1-.026.081c-.015.025-.031.056-.051.086a.734.734,0,0,1-.051.091c-.015.025-.031.046-.041.061l.026-.061a.308.308,0,0,0,.026-.061.106.106,0,0,0,.02-.03.177.177,0,0,0,.026-.041c.01-.015.015-.03.026-.046s.031-.056.046-.081Zm-.138-.182-.051.091h0l.051-.091Zm.031-.208-.066.172a2.507,2.507,0,0,1-.128.263l-.02.03h0a.428.428,0,0,1-.046.076.652.652,0,0,0-.046.081.463.463,0,0,1-.051.066.322.322,0,0,0-.041.071,3.015,3.015,0,0,1-.25.284c-.031.02-.056.046-.082.066l-.01.005-.005.005-.031.03-.031.03c-.036.025-.066.051-.1.076l-.02.015-.041.035h-.01l-.005.01a.831.831,0,0,1-.087.056l-.082.051-.01.005-.056.035-.015.01-.02.01a.556.556,0,0,1-.056.03l-.051.025-.122.056a2.663,2.663,0,0,1-.281.106l-.194.051.158-.03a.065.065,0,0,1,.031-.005.2.2,0,0,1,.092-.035.428.428,0,0,0,.061-.02.546.546,0,0,1,.1-.046c.036-.015.071-.025.107-.041l.071-.025.031-.02.026-.005.041-.025.01-.005.026-.025a.558.558,0,0,1,.056-.03l.066-.035.026-.015c.026-.015.051-.035.082-.051a.08.08,0,0,1,.036-.035.471.471,0,0,1,.041-.025.794.794,0,0,0,.1-.081.311.311,0,0,1,.077-.066,1.02,1.02,0,0,1,.082-.071,2.427,2.427,0,0,0,.25-.284l.036-.056v-.005a.5.5,0,0,0,.056-.086c.01-.01.01-.015.02-.025l.02-.03.01-.015a.552.552,0,0,0,.041-.076,1.142,1.142,0,0,0,.087-.177c.026-.061.056-.122.087-.192.005-.02.015-.051.026-.081l.01-.03Zm.25-.309h0l.005.01.02.02.01-.01h.005l-.01.005a.07.07,0,0,1-.02-.015l-.01-.01Zm-.02-.243h0v.01a.206.206,0,0,1-.005.056.064.064,0,0,1-.005.03.708.708,0,0,0-.051.081c-.005.025-.01.046-.015.071l-.01.02a.712.712,0,0,0-.02.1c-.01.03-.015.056-.026.081s-.015.056-.026.081l-.015.061-.015.061.01-.02.015-.046a.252.252,0,0,1,.01-.061A.5.5,0,0,1,39.94,27c.005-.025.015-.051.02-.081s.015-.061.026-.1L40,26.8c.005-.025.01-.046.015-.071s.031-.051.051-.081c-.015.056-.026.106-.036.162s-.036.122-.026.137c-.02.061-.036.116-.056.172l-.015.02-.005.025a.1.1,0,0,1-.015.046.564.564,0,0,0-.056.127c-.01.02-.02.046-.031.071a.246.246,0,0,0-.015.035c-.005.01-.015.025-.02.035-.02.035-.041.071-.061.1a.3.3,0,0,1-.061.1.723.723,0,0,1-.077.132,1.443,1.443,0,0,0-.087.132.724.724,0,0,0-.056.076.908.908,0,0,0-.066.071.106.106,0,0,1-.02.03c-.005.01-.015.015-.02.03s-.026.02-.036.025l-.061.066v.01a.685.685,0,0,1-.061.061.747.747,0,0,1-.066.046l-.051.046-.051.035h.01l.051-.041.056-.046a.518.518,0,0,0,.066-.046l.061-.061c0-.005,0-.005-.005-.01a.376.376,0,0,0,.061-.066c.01-.01.026-.02.036-.03s.015-.02.026-.03a.111.111,0,0,1,.02-.025l.061-.076a.383.383,0,0,0,.056-.071c.026-.041.056-.086.087-.132a.545.545,0,0,0,.082-.132.669.669,0,0,0,.061-.1c.02-.03.036-.071.056-.1a.151.151,0,0,0,.02-.041c.01-.01.01-.025.02-.035a.35.35,0,0,0,.026-.066.581.581,0,0,1,.061-.127.212.212,0,0,0,.02-.091,1.712,1.712,0,0,0,.061-.172c-.01-.015.02-.081.026-.132l.031-.167.01-.025h-.005v-.061Zm.066-.066a.054.054,0,0,0-.01.03l-.005.056v.056l-.02.066V26.7l.026-.071V26.52l.01-.02Zm-.092-.091-.015.035-.005.046-.005-.02h0l.005.025a.1.1,0,0,1-.005.035c.005.005.005.015.01.025h.005l-.005-.015a.064.064,0,0,0,.005-.03c.005-.03.005-.066.01-.1Zm.179-.056.005.005v.147a.891.891,0,0,1-.005.111c0,.015-.005.035-.005.066a.479.479,0,0,0-.02.091.432.432,0,0,0-.005.081.419.419,0,0,0-.02.076v.005a.522.522,0,0,0-.015.061,1.141,1.141,0,0,1-.031.127c-.026.025-.02-.015-.051.02,0,0,0-.01.005-.01a.206.206,0,0,1,.01-.091l.031-.091.026-.015h0V26.92c.02-.081.01-.1.026-.157l.015-.076.015-.076a.388.388,0,0,1,.01-.076c0-.02.005-.046.005-.071a.2.2,0,0,1,0-.056.086.086,0,0,1,.005-.035v-.03Zm-5.608-.977Zm.128-.3a.342.342,0,0,0-.046.086c-.015.01-.026.025-.041.03v.005l-.005.081h0l.005-.081c.015-.01.026-.025.041-.035a.342.342,0,0,1,.046-.086Zm.026-.187c-.01.01-.02.015-.031.025-.015.025-.026.051-.046.091l.01.01V25l-.005-.005a.531.531,0,0,1,.041-.091l.026-.02Zm.163-.116h-.005l-.01.046c0,.01-.005.015-.005.02-.082.106-.128.253-.2.355a.55.55,0,0,1-.026.086c-.01.03-.015.061-.026.091a.707.707,0,0,0-.056.187c-.01.041-.026.081-.036.127l-.015.091-.01.051c0,.015-.005.03-.005.051a1.09,1.09,0,0,0-.02.127c0,.03-.005.051-.005.081s.005.046.01.086l.005-.046v-.015c0-.03.005-.061.005-.091s.015-.086.02-.132l.015-.015.02-.147v-.025l.02-.061.015-.051-.005.01a.019.019,0,0,0-.015-.005c-.01.025-.02.061-.031.091a.189.189,0,0,0,.005.051.745.745,0,0,0-.015.1c0,.005-.005.01-.005.02s-.01.015-.02.025a.189.189,0,0,0,.005-.051l.01-.051.015-.091c.015-.046.026-.086.036-.127a1.084,1.084,0,0,1,.056-.187c.01-.03.015-.061.026-.091s.02-.056.031-.086c.066-.1.112-.248.194-.355a.559.559,0,0,0,.02-.066Zm.4-.486h-.005a.026.026,0,0,1-.01.02c-.041.046-.087.1-.133.152-.01.015-.026.025-.036.041a.279.279,0,0,1-.036.046l-.158.177.163-.177a.279.279,0,0,1,.036-.046.29.29,0,0,1,.036-.041c.041-.056.087-.106.128-.157Zm.02-.025-.015.015-.005.01Zm.005,0h0ZM35.4,24.1a.019.019,0,0,0-.015.005l-.015.005-.005.005c-.005.005-.015.01-.02.02a.637.637,0,0,0-.061.041l-.041.041-.041.046a.115.115,0,0,1-.026.025v-.005l-.02.03c-.01.01-.02.025-.041.051l-.066.071.01.015h0l-.01-.01a.908.908,0,0,1,.066-.071.5.5,0,0,1,.066-.081l.026-.025.036-.046.041-.041a.637.637,0,0,0,.061-.041c.01-.005.015-.015.026-.02a.241.241,0,0,0,.026-.01L35.4,24.1h0Zm3.082-.385a.842.842,0,0,1,.112.051.119.119,0,0,1,.046.035l-.107-.051A.146.146,0,0,1,38.486,23.714Zm-.352-.152a.23.23,0,0,1,.087.02c.036.015.077.035.117.056A.723.723,0,0,1,38.134,23.562Zm-1.281-.015a.2.2,0,0,0-.046.005l-.1.015c-.026.005-.061.015-.092.02a.1.1,0,0,1-.041.01l-.046.015-.1.02-.02.005-.128.046a.954.954,0,0,0-.128.051c-.036.015-.061.03-.092.041a.189.189,0,0,0-.056.025.774.774,0,0,0-.148.066c-.026.015-.046.03-.071.046a.747.747,0,0,0-.066.046.436.436,0,0,1-.112.076c-.031.025-.066.056-.1.081l-.1.086.01.01c.005,0,.01-.005.02-.015l.015-.01.066-.056a.8.8,0,0,1,.1-.081.592.592,0,0,0,.107-.081.748.748,0,0,0,.066-.046.511.511,0,0,1,.071-.041c.051-.025.1-.051.148-.071a.558.558,0,0,0,.056-.03.725.725,0,0,0,.092-.041c.041-.015.082-.03.128-.051s.087-.025.128-.041l.056-.01.026-.01.357-.076Zm.76-.046c.015,0,.031.005.046.005a.161.161,0,0,1,.061.02c-.01,0-.026-.005-.046-.005a.668.668,0,0,1-.1-.02Zm.25-.015c.026,0,.056.005.087.005s.071.03.107.041c-.051-.005-.1-.015-.133-.02S37.863,23.5,37.863,23.486Zm-.714,0c-.082,0-.163.005-.245.01-.056.005-.112.015-.168.025a.385.385,0,0,0-.082.02c-.026.01-.051.015-.071.025l-.1.015a2.7,2.7,0,0,0-.373.142c-.046.015-.092.041-.133.056l-.041.015a.223.223,0,0,0-.036.02c-.026.015-.046.025-.066.035a.746.746,0,0,1-.107.056.566.566,0,0,0-.082.061,1.211,1.211,0,0,0-.235.182l-.051.046-.046.041h0a2.936,2.936,0,0,0-.367.43c-.031.046-.056.076-.077.1a.332.332,0,0,0-.031.061c-.01.02-.026.041-.036.061-.02.041-.041.076-.061.116l-.071.106v.005c-.01.02-.015.041-.026.066a.11.11,0,0,1-.015.025l-.005.005-.02.066c0,.015-.005.025-.005.035a.168.168,0,0,1,0,.051c-.01.03-.02.061-.031.086l-.031.091c-.01.041-.015.081-.026.127a.928.928,0,0,0-.02.116.822.822,0,0,0-.01.111c.005-.025.01-.056.015-.076v-.01l.005-.03c.005-.035.01-.076.015-.116l.005.005v-.005h-.005c.01-.046.02-.086.031-.127s.015-.061.026-.086l.031-.086V25.36a.171.171,0,0,0,.005-.051.255.255,0,0,1,.02-.1c.005-.005.01-.015.02-.025v-.005l.02-.061c.026-.035.046-.076.071-.111s.041-.076.061-.116a.341.341,0,0,0,.036-.056.155.155,0,0,1,.036-.061c.015-.025.041-.061.071-.1a2.727,2.727,0,0,1,.373-.43c.031-.03.061-.061.1-.091a1.211,1.211,0,0,1,.235-.182.566.566,0,0,1,.082-.061.739.739,0,0,0,.1-.056.468.468,0,0,0,.071-.035.222.222,0,0,1,.036-.02.353.353,0,0,1,.041-.015,1.039,1.039,0,0,1,.133-.056,2.7,2.7,0,0,1,.373-.142l.1-.015c.02-.01.046-.015.071-.025a.427.427,0,0,1,.077-.02c.061-.01.117-.02.173-.025.082-.005.163-.01.245-.01l.2.005-.2-.005Zm-1.23,22.138a1.84,1.84,0,0,1-.071-.177l-.27.1.046.091C35.725,45.634,35.822,45.629,35.919,45.624Zm-.633.015-.015-.035a21.221,21.221,0,0,0-3.756-5.52c-.429-.461-.852-.907-1.311-1.332l-.694-.618c-.439-.415-.342-.182-1.066-.274a1.813,1.813,0,0,1-1.612-1.033c-.2-.557.071-.669-.153-1.089a.805.805,0,0,1,.051-.977,2.079,2.079,0,0,1-.643-1.605,1.835,1.835,0,0,1,.985-1.276c-.036-.593-.158-1.454.3-1.93.225-.238.235-.142.5-.289.087-.674.163-1.231.862-1.3a4.836,4.836,0,0,1,.964.137c.367.01.765.025,1.133.015-.005-.263-.117-.709.133-.891.148-.106.01.03.2.035.056-.076.005-.076.051-.157a2.014,2.014,0,0,1,2.322,1.712c.413-.01.827-.284,1.271-.1a1.421,1.421,0,0,1,.449.3,3.859,3.859,0,0,0,.434.365c.327.116,1.868-.471,2.72-.1.424.182.505.41.566.942a13.623,13.623,0,0,1-.036,2.188,6.21,6.21,0,0,1-.02.765,5.22,5.22,0,0,0-.316,1.216c.117.076.291.213.429.3l.383.268a16.673,16.673,0,0,0,6.833,2.806,11.375,11.375,0,0,0,.73-4.031,11.591,11.591,0,1,0-11.7,11.507Zm10.894-7.293a9.265,9.265,0,0,1-1.6-.3c-2.638-.755-5.235-2.755-5.812-2.963a8.836,8.836,0,0,0,.745.593c.638.486,1.265,1.018,1.847,1.555a23.916,23.916,0,0,0,3.031,2.4c.352.192.112.106.219.329.225-.051.036-.1.3.015.168.066.138-.02.357.051a.332.332,0,0,0,.066.02A11.192,11.192,0,0,0,46.181,38.346Z" transform="translate(-10.475 -9.846)" fill="#0c5adb" fill-rule="evenodd"/>
    <path id="Caminho_1178" data-name="Caminho 1178" d="M33.3,37.1a1.142,1.142,0,0,1,.315-.88.948.948,0,0,0-.654.666,2.312,2.312,0,0,0-.2-.375,2.417,2.417,0,0,1-.178-.464,3.093,3.093,0,0,1-.149-1.112c.065-.892.512-1.16,1.4-1.166l-.149-.077c-.048-.012-.155-.03-.2-.036a1.1,1.1,0,0,0-1.017.351c-.381-.107-1.059-.642-1.535-.274-.387.309-.291,1.089-.25,1.624-.863-.131-1.029.232-1.029,1.095a9.25,9.25,0,0,0,.22,1.213c.006.048-.036-.024.024.059a1.514,1.514,0,0,1,.2.381,1.344,1.344,0,0,0-1.208.054,1.3,1.3,0,0,0-.518,1.029,1.744,1.744,0,0,0,.393,1.035,3.907,3.907,0,0,0,.7.8c-.91.315-.309.666-.2,1.035.018.059-.048.636-.03.827.107,1.213,1.719,1.707,2.855,1.2a9.15,9.15,0,0,1,1.047.981c.161.167.339.321.5.5a39.258,39.258,0,0,1,5.2,6.948,7.052,7.052,0,0,0,.375.66l.333-.054a17.048,17.048,0,0,0-1.4-2.689,26.372,26.372,0,0,0-1.618-2.445c-.291-.41-.559-.761-.868-1.136l-1.416-1.642c-.286-.345-1.4-1.332-1.529-1.553.393-.488.476-.339.434-1.321.083.107.19.345.274.476.678,1.106,2.034,2.373,2.427,3.063-.119-.077-.071-.048-.155-.149l-.422-.464a7.933,7.933,0,0,0-1.85-1.677l1.731,2.159a32.52,32.52,0,0,1,4.509,7.317c.2-.054.2-.024.339-.137l1.053-.422a20.526,20.526,0,0,0-.88-3.813,31.592,31.592,0,0,0-3.813-7.935,8.318,8.318,0,0,1-.91-1.422c.333,0,1.059.738,1.463.785a2.933,2.933,0,0,0-.993-1.285l-.113-.143c-.1-.173-.28-.256-.41-.4-.1.065-.173.119-.268.065-.184-.1-.059-.22-.012-.321-.083-.048-.125-.089-.2-.137a.244.244,0,0,0-.1-.042l-.1-.03a.693.693,0,0,1,1.059-.339,2.1,2.1,0,0,1,.2.208c.161.161.089.059.25.113.232.077.428.161.559-.119.006.071-.018.131.018.19a3.407,3.407,0,0,0,1.558-.107c.339-.19.054-.286.571-.315a6.163,6.163,0,0,0,.827-.054c-.22-.167-.708-.054-.97-.155a1.432,1.432,0,0,1,.452-.2l.381-.137c.1-.054.059-.024.125-.1a10.03,10.03,0,0,0-1.535.208,3.044,3.044,0,0,1-1.487.2,1.376,1.376,0,0,1-1.106-1.529A.477.477,0,0,1,36,35.167a1.062,1.062,0,0,0,.25.946,1.5,1.5,0,0,0,1.083.274c-.28-.173-.547-.089-.839-.393a1.036,1.036,0,0,1-.184-.952,12.022,12.022,0,0,1,1.808-.238c.9-.155.922.268,1.463.535-.054-.107-.006-.042-.089-.137a4.054,4.054,0,0,0-.958-.732c-.529-.25-1.166.012-1.683-.006a1.9,1.9,0,0,0-1.142-1.713c-2.2-1.279-1.606,1.321-1.594,1.85a6.005,6.005,0,0,0,.137,1.291c.1.351.488.654.125,1.083A.916.916,0,0,1,33.3,37.1Zm-3.855,4.747a3.293,3.293,0,0,0,.72-.238c-.036-.167-.3-.416-.5-.351A.448.448,0,0,0,29.441,41.847Zm1.826-6.5c.048-.244-.024-.4.137-.577.071-.042.767.226.845-.452-.8-.167-1.445.238-.981,1.029Zm5.306-.815a2.34,2.34,0,0,0-.583-1.178.957.957,0,0,0-1.291-.083.685.685,0,0,0,.232,1.1,5,5,0,0,0,.857.036,5.284,5.284,0,0,1,.785.125Zm-5.241,8.97a1.61,1.61,0,0,1-.19-.393c-.048-.232-.018-.333.155-.446-.071,1.344.857.512.749-.012-.173-.874-1.118.143-1.523-.131-.178-.125-.4-.422-.791-.226-.416.208-.143.535-.012.749.226.381.018.458.589.535A2.641,2.641,0,0,0,31.332,43.506Zm.006-2.254-.208-.22a.552.552,0,0,1-.036-.381c.059-.291.149-.393.422-.458-.083.208-.244.381-.1.672a.426.426,0,0,0,.571.274c.428-.119.987-.512.535-1.017a3.758,3.758,0,0,0-1.285-.523c-.22-.059-1.023-.143-1.321-.494-.065-.077-.351-1.017-.987-.381a1.038,1.038,0,0,0-.018,1.309A2.4,2.4,0,0,0,31.338,41.252Zm.506-2.272c-.167-.256-.161-.357-.018-.7.155-.369.143-.3.494-.452a2.421,2.421,0,0,0-.291.571.571.571,0,0,0,.208.636,1.7,1.7,0,0,0,1.416-.339c.452-.44,0-.809-.452-1.023a3.777,3.777,0,0,1-1.124-.708l.25-.059a1.81,1.81,0,0,0-.268-.22c-.369-.291-.458-.547-.809-.678-.541-.2-1.243.125-1.1.732.059.262.22.351.309.654.1.345.048.547.244.767a2.9,2.9,0,0,0,1.142.815Z" transform="translate(-13.672 -16.247)" fill="#0c5adb" fill-rule="evenodd"/>
    <path id="Caminho_1179" data-name="Caminho 1179" d="M46.743,36.962c1.445.155,2.921-.381,3.17.506a11.489,11.489,0,0,1,.012,2.641,1.3,1.3,0,0,1-.19.791,11.437,11.437,0,0,1-2.409,3.218,4.059,4.059,0,0,1-1.2.7c.214.3.488.565.732.863.113.137.25.3.369.434l3.89,4.271c.125.143.262.28.381.422,1.106,1.338.744.642.922.422.083-.107.125-.065.208-.2.036-.059.024-.018.042-.1-.059-.036-.089-.048-.131-.071l-.161-.119a2.409,2.409,0,0,0,.476.077c.089-.119.048-.042.065-.214.167-.006.107.036.232-.048.036-.369-.22-.5-.482-.678a12.236,12.236,0,0,1-3.539-3.539,4.627,4.627,0,0,1-.506-.69,2.915,2.915,0,0,0,.28-.488c-.178-.071-.155-.065-.25-.2.054-.119.042-.387.518-.28l.3-.779c-.107.054-.042.012-.1.089-.214.256-.089.214-.274.113-.149.173-.363.286-.327-.113l.2-.071-.113-.048c-.083-.048-.042.006-.1-.077.077-.155.065-.065.131-.119.178-.149.071-.232.286-.357l.113-.054c.077.119.03.1.137.167l.173-.47c-.018.149-.048.238.018.339a12.642,12.642,0,0,0,.607-2.189l.208-2.623c.036-.94-.107-1.7-1.065-1.755a12.736,12.736,0,0,0-1.344.042c-.214.018-.446.042-.66.065l-.625.119Z" transform="translate(-21.817 -17.884)" fill="#0c5adb" fill-rule="evenodd"/>
    <path id="Caminho_1180" data-name="Caminho 1180" d="M46.51,39.762a2.326,2.326,0,0,0,1.172.226.838.838,0,0,0,.773-.66c.256-.815-.583-1.237-1.124-1.648.054.309,1.5,1.642.214,2.064A2.639,2.639,0,0,1,46.51,39.762Z" transform="translate(-21.7 -17.597)" fill="#0c5adb" fill-rule="evenodd"/>
    <path id="Caminho_1181" data-name="Caminho 1181" d="M48.442,25.76l.6,1.88,1.975-.006-1.594,1.154.613,1.88L48.442,29.5l-1.6,1.166.619-1.88-1.6-1.154,1.975.006Z" transform="translate(-21.574 -12.114)" fill="#0c5adb" fill-rule="evenodd"/>
    <path id="Caminho_1182" data-name="Caminho 1182" d="M68.216,16.486l-.054.03v.006Zm.309-11.8h-.28l.077.012.077.024-.071-.018a.657.657,0,0,0-.1-.018H67.02a5.279,5.279,0,0,0-.684.107l-.012.006h-.048a.234.234,0,0,0-.083.018l-.119.042-.048.012a5.748,5.748,0,0,0-1.178.476l-.012.006-.059.012a.314.314,0,0,0-.083.048c-.024.018-.054.036-.077.054l-.048.048-.018.012-.143.071a.947.947,0,0,1-.131.077l-.071.071L64.1,5.82c-.059.048-.125.089-.184.137s-.113.083-.167.125-.077.083-.125.131-.077.071-.113.107-.071.071-.113.113H63.4L63.4,6.427c-.03.024-.059.054-.1.083a.391.391,0,0,0-.065.1l-.143.143.012-.024c0-.024-.036-.012-.006-.071-.036.03-.089.113-.137.161a1.427,1.427,0,0,0-.065.137c-.006.012-.012.024-.018.024-.006-.03-.042.012-.071.036s-.042.059-.065.1-.048.089-.077.155c-.048.054-.071.083-.1.107a1.462,1.462,0,0,0-.131.25c-.03.071-.059.131-.089.2s-.071.143-.113.22a.5.5,0,0,0-.059.1.5.5,0,0,1-.048.125l-.03.178-.006.006c-.024.077-.054.149-.077.22s-.036.149-.059.22c-.012.054-.024.089-.036.143a.254.254,0,0,1-.006.113l-.012.1-.024.042c-.006-.077.042-.2.024-.25-.024.024-.059.125-.1.184a2.063,2.063,0,0,0-.03.25c-.006.024-.012.048-.018.077a.784.784,0,0,0-.048.309c.006.042.018.077.024.113a.7.7,0,0,0-.03.208,2.473,2.473,0,0,0-.03.809,1.175,1.175,0,0,0,.048.155c.006.065.012.137.024.208s.018.137.03.208a.283.283,0,0,0,0,.178.532.532,0,0,1,.065.208.553.553,0,0,0,.107.238.651.651,0,0,0,.03.1h.03l.036.113c.024.059-.018-.1.006-.042.018.042.042.1.065.155s.048.1.065.1a.336.336,0,0,0-.036-.119c-.018-.042-.048-.107-.1-.226h-.018l-.006-.089a4.045,4.045,0,0,1-.107-.446c-.018-.065-.042-.137-.059-.208-.018-.1-.03-.149-.036-.208-.018-.083-.036-.161-.054-.244h-.012a1.02,1.02,0,0,1-.024-.262,2.005,2.005,0,0,0,0-.268c.006-.071.012-.137.024-.208a1.022,1.022,0,0,1-.012-.155c.006-.065.012-.149.012-.244V9.865c.006-.03.012-.071.018-.107.018-.059.03-.131.048-.2s.024-.113.036-.173l.006.03-.024.131c-.018.059-.036.137-.054.2a.656.656,0,0,0-.012.107c0,.024-.006.048-.006.065-.006.1-.012.173-.012.238a.654.654,0,0,0,.012.161l.036.042-.042-.042c-.006.071-.018.137-.018.208a2.092,2.092,0,0,1,0,.274.976.976,0,0,0,.024.256h.006c.03.036.024-.125.042-.131a1.155,1.155,0,0,0-.012-.143v-.422a1.161,1.161,0,0,1,.012-.137c0-.054.006-.113.012-.173s.012-.119.018-.173V9.871l.012.059c.048-.178.042.054.059.083.006.012.018.024.03.042.012-.024.024-.042.036-.065v.018l-.018.036a1.358,1.358,0,0,0-.012.161l.006.107-.012.048c-.006.024-.006.042-.012.071a.613.613,0,0,0-.018.19,1.066,1.066,0,0,0,.012.143.411.411,0,0,0,.024.107h.018a.946.946,0,0,1,.077.077c.006.03.018.065.024.1s.024.071.03.1c.012.077.018.119.024.167h.036c.012.065.018.125.03.184a.5.5,0,0,0,.042.143c-.006-.054-.018-.107-.024-.167s-.018-.107-.024-.161a.292.292,0,0,1-.006-.065v-.012l.054.339a3.783,3.783,0,0,0,.119.464l.024.083.083.262c.03.089.065.178.1.262l.077.131.065.149.042.071.012.083-.012-.018a.283.283,0,0,0-.03-.107c-.036-.071-.065-.137-.089-.19a.958.958,0,0,0-.089-.155c.03.077.059.155.089.226s.065.149.1.226.065.125.1.19.065.131.1.19h.012a.761.761,0,0,0,.071.173,1.173,1.173,0,0,0,.131.184l.065.048.012.012c.018.018.03.054.054.077-.054-.036.012.048.018.077a1.831,1.831,0,0,0,.143.155l.042.042.018.048c.071.077.131.155.208.232a.5.5,0,0,0,.143.113.965.965,0,0,0,.113.1l.119.1a1.187,1.187,0,0,1,.214.226c-.03-.012-.059-.018-.1-.03-.006,0-.012.006-.024.006l.107.089c.173.119.131.036.274.119.054.036.113.071.173.107.042.036.083.036.2.119a.309.309,0,0,1,.149.065.834.834,0,0,0,.178.119.259.259,0,0,1-.042.024l-.155-.083a.731.731,0,0,1-.149-.083.018.018,0,0,1-.012.006c.012.03.03.054.042.077.083.048.161.083.25.131.024,0,.042-.006.071-.006.083.042.155.083.238.119a1.522,1.522,0,0,0,.161.03.341.341,0,0,0,.065.065c.065.012.131.042.244.065a2.636,2.636,0,0,0,.47.125l.119.018c.036.012.083.012.125.024s.089.018.137.03l.161.036.137.018v.006c.065,0,.137.006.208.006-.042-.018-.083-.036-.137-.054l-.059.036h0a.743.743,0,0,0,.071-.048c.054.024.089.042.137.059h.036c.113.006.214,0,.321,0,.083.006.161.006.232.012a2.125,2.125,0,0,0,.28-.024h.036a1.081,1.081,0,0,0,.19-.018c.071-.006.161-.012.28-.024a.67.67,0,0,1,.107-.018c.018-.006.042-.006.065-.012.048-.012.089-.018.143-.03.036-.012.077-.018.113-.03a.7.7,0,0,0,.119-.03l.226-.036-.03.006-.214.042a.793.793,0,0,0-.113.03c-.042.006-.083.018-.119.024s-.089.024-.143.036a.244.244,0,0,1-.065.006.337.337,0,0,1-.107.018.991.991,0,0,1-.178.048,1.887,1.887,0,0,1-.274.03c0-.012-.012-.018-.012-.03h-.036c-.089,0-.184.012-.28.018-.071-.006-.149-.006-.232-.006h-.321c-.006,0-.024-.006-.036-.006-.065-.006-.137-.006-.208-.006l-.006.006a1.02,1.02,0,0,1-.143-.024l-.012.006-.155-.036c-.048-.012-.1-.018-.137-.03s-.089-.018-.125-.024l-.119-.018a2.636,2.636,0,0,1-.47-.125c-.113-.03-.178-.054-.238-.065a.629.629,0,0,0-.071-.059,1.555,1.555,0,0,1-.161-.036.16.16,0,0,0-.042.036l.232.089c.1.036.161.059.22.083s.125.054.178.083a.7.7,0,0,1,.149.024c.054.006.107.024.167.036.125.024.262.054.434.077h.006l.226.036h.012l-.059.065.1.018a.481.481,0,0,1,.1.006c.065,0,.131.006.208.012s.167,0,.274-.006a.292.292,0,0,1,.1-.042.485.485,0,0,1,.107.006.085.085,0,0,0,.012.036h.1a6.284,6.284,0,0,0,1.338-.22,6.6,6.6,0,0,0,.9-.345c.071-.042.155-.083.238-.125.042-.024.089-.048.137-.071s.089-.048.137-.071c.089-.048.178-.107.262-.161a1.478,1.478,0,0,0,.208-.161c.131-.1.262-.19.393-.3.036-.03.071-.054.107-.083s.065-.059.1-.1a1.834,1.834,0,0,0,.161-.143.962.962,0,0,0,.059-.107l.1-.083-.006.006-.089.089a.844.844,0,0,0-.065.107c-.054.054-.1.1-.155.143l-.107.089-.107.089c-.131.113-.262.208-.393.3a1.7,1.7,0,0,1-.208.161c-.083.054-.167.1-.262.155-.048.03-.1.048-.137.077a.968.968,0,0,1-.137.065c-.083.048-.167.089-.238.125a5.347,5.347,0,0,1-.9.345,6.164,6.164,0,0,1-1.338.22.209.209,0,0,1-.03.048c-.006,0-.006.006-.006.012h.143c.048,0,.1-.006.143-.006.065.006.137.006.2.006a1.258,1.258,0,0,1,.143-.012c.089-.018.178-.042.256-.059a.587.587,0,0,1,.178-.036l.125-.006-.012.006h-.131c-.048.012-.1.018-.173.042s-.167.036-.262.054l-.137.012h-.339a1.146,1.146,0,0,1-.143.006c-.012.012-.036.018-.048.03a.662.662,0,0,1,.1.012c-.012.012-.012.018-.024.03v.006a.481.481,0,0,0,.119.018l.1-.018.012.006c.042,0,.077-.006.107-.006a.759.759,0,0,0,.113-.006.7.7,0,0,0,.119-.042h.071a.61.61,0,0,0,.083.024c.119-.024.244-.042.357-.071l.006-.006.137-.03c.036-.006.065-.006.059.006.048-.012.1-.018.161-.036.03-.012.065-.018.1-.03l.125-.054h.012c.059-.03.119-.054.178-.083a.32.32,0,0,0,.018-.059c-.024.006-.048.018-.065.024s-.048.012-.065.024a1.2,1.2,0,0,1-.137.042.046.046,0,0,1-.024-.024.366.366,0,0,0-.065.018.3.3,0,0,0-.077.012l-.155.042.006-.006a1.555,1.555,0,0,0,.161-.036l.077-.018.065-.012.018.018a.92.92,0,0,1,.137-.042.249.249,0,0,0,.059-.024c.03-.006.048-.018.071-.024-.006.024-.012.042-.018.059a.4.4,0,0,0,.208-.089.142.142,0,0,0-.054-.018l.1-.065.012-.006c.113-.048.226-.089.333-.143l.012-.006.071-.012c.03-.018.065-.03.1-.048s.065-.036.1-.054a.482.482,0,0,0,.161-.113c0-.012-.018-.006-.042,0l-.054.024.006-.006.042-.018c.03-.012.048-.018.042-.006a.674.674,0,0,0,.119-.077c.024-.018.054-.036.083-.059l.083-.065.03-.012c.03-.018.054-.036.089-.059h0l.083-.036a.315.315,0,0,0,.113-.077.467.467,0,0,0,.143-.143c-.054.042-.113.089-.173.131l-.161.119h0l.161-.125a1.878,1.878,0,0,0,.173-.131l.071-.089L71.678,15a2.261,2.261,0,0,0,.22-.2c.071-.065.137-.137.2-.208v-.012l.048-.036.006-.006.071-.054a.716.716,0,0,0,.089-.1c.042-.065.167-.178.178-.274-.024-.018-.167.184-.232.256l-.048.071.048-.071c.065-.077.208-.286.232-.256l.107-.149v.006c.03-.036.065-.083.1-.119s.065-.089.1-.131l.059-.119a1.271,1.271,0,0,0,.059-.131.65.65,0,0,1,.036-.065c.018-.03.036-.054.054-.083s.03-.059.048-.089c.03-.054.065-.113.1-.173a.346.346,0,0,0,.054-.149c-.03.018-.054.03-.077.042L73.1,13v-.006l.012-.03a.492.492,0,0,0,.077-.042,1.33,1.33,0,0,0,.137-.393c-.006.006-.012.006-.018.018-.036.065-.065.143-.1.208.03-.065.059-.143.089-.208l.018-.018c.024-.059.054-.131.077-.2A.135.135,0,0,0,73.4,12.3a.759.759,0,0,1,.018-.184c.024-.059.048-.131.065-.19a.241.241,0,0,1,.054-.03c.036-.173.024-.214.054-.327l.036-.161c.012-.054.012-.107.024-.161a1.288,1.288,0,0,1,.024-.149,1.054,1.054,0,0,1,.006-.143.451.451,0,0,1,.006-.125A24861790107986.164,24861790107986.164,0,0,1,73.7,10.7c-.012-.006-.024-.018-.036-.024a1156.745,1156.745,0,0,0-.048.178c-.006.048-.006.1-.012.143l-.006.071-.006.071-.018.012V11.15l.018-.012a.29.29,0,0,1,.006-.071l.006-.077c.006-.048.006-.1.012-.143a.341.341,0,0,0,.024-.083.445.445,0,0,0,.024-.1c-.006-.065-.006-.125-.006-.19a.543.543,0,0,0-.077.048h-.048c-.012-.006-.018-.012-.036.119v.018l-.03.1v.03h-.036a1.046,1.046,0,0,1-.083-.137c-.012-.059-.018-.071-.024-.119-.018-.012-.03-.024-.048-.036L73.23,10.5V10.46a5.554,5.554,0,0,0-2.445-4.61l-.065-.036-.006-.006c-.042-.03-.083-.059-.125-.083-.083-.059-.167-.107-.244-.161a1.552,1.552,0,0,0-.19-.107.537.537,0,0,0-.054-.03c-.018-.006-.036-.018-.054-.024a.627.627,0,0,1-.077-.048c-.036-.018-.071-.03-.107-.048a.725.725,0,0,0-.1-.042,1.072,1.072,0,0,1-.125-.048h-.006l-.018-.03a.5.5,0,0,0-.137-.054l-.054-.006h0l-.077-.03-.077-.018-.161-.048c-.054-.018-.113-.03-.161-.042a1.37,1.37,0,0,1-.167-.036.779.779,0,0,1-.161-.036.314.314,0,0,1-.1-.012c-.042-.006-.107-.018-.2-.036l-.1-.018a.419.419,0,0,1-.125.006h0l.113-.006c-.077-.018-.167-.03-.256-.048.048-.024-.065-.03-.03-.048L68,4.726h.416a1.051,1.051,0,0,0,.125.018c.036.012.077.018.113.03s.083.018.119.024a.262.262,0,0,0,.059.012.136.136,0,0,0,.065.018,1.681,1.681,0,0,0,.173.012.024.024,0,0,0,.006-.03h.006a.719.719,0,0,0-.107-.03.854.854,0,0,0-.167-.042c-.077-.012-.054.024-.113.024a.315.315,0,0,1-.089-.048.278.278,0,0,0-.083-.024Zm.161,11.492c-.071.012-.119.03-.184.042s-.143.018-.274.036a.064.064,0,0,0-.012-.036c.059,0,.119-.012.19-.018s.155-.012.28-.024Zm.476-.048h0Zm-3.4-.065c.042.006.1.024.19.048a.421.421,0,0,0,.083.006c.077.042.155.077.232.113a.811.811,0,0,1,.1.024h.006l.024-.024c.036.006.065.018.1.024a.5.5,0,0,0,.089.024l.178.042h.006c.065.006.137.018.208.03l.1.018a.663.663,0,0,0,.1.012c.059,0,.125.006.208.006s.167.006.274,0h.012l.03-.018.059-.018c.024,0,.042-.006.059-.006s.036.006.048.006l.006.036h.1a.181.181,0,0,0-.03.042c-.006.006-.012.006-.018.018a.274.274,0,0,1-.059.03h-.1c-.048-.006-.1-.006-.137-.012-.1,0-.2,0-.291-.006l-.214-.018c-.059-.006-.125-.018-.19-.024s-.125-.018-.19-.03c-.1-.018-.2-.03-.291-.048a.778.778,0,0,1-.226-.071h0l-.131-.042a1.159,1.159,0,0,0-.119-.054.849.849,0,0,1-.131-.048,1.338,1.338,0,0,1-.143-.048c.006-.012.024-.018.065-.012Zm2.552-.1-.065.012-.458.024.149.018a.088.088,0,0,1,.042-.006c.089-.018.178-.024.268-.036a.167.167,0,0,0,.048-.006Zm.41-.059-.22.03.077.006a.36.36,0,0,0,.107-.024Zm.827-.012-.708.19.357-.083Zm-4.533-.089a4.248,4.248,0,0,1,.5.214,1.017,1.017,0,0,0,.178.054c.048.018.1.036.137.048a.849.849,0,0,0,.131.048,1.158,1.158,0,0,1,.119.054c-.006,0-.018.012-.024.018-.024-.006-.048-.006-.071-.012-.083-.024-.167-.059-.244-.089l-.125-.048c-.036-.018-.083-.036-.119-.054-.059-.018-.113-.042-.161-.059a1.452,1.452,0,0,1-.143-.059.894.894,0,0,1-.107-.054C65.057,15.849,65.033,15.831,65.015,15.813Zm.208-.107c.083.042.149.083.238.119-.012.006-.018.012-.03.018-.1-.042-.19-.089-.28-.131a.314.314,0,0,0,.071-.006Zm-.88-.3a2.17,2.17,0,0,1,.291.167c.018.024.077.065.065.071a1.549,1.549,0,0,1-.143-.077.589.589,0,0,1-.1-.065.321.321,0,0,1-.113-.1Zm.518-.107h0l.012.018v-.006Zm6.335-.286h-.018a2.491,2.491,0,0,1-.262.184,1.268,1.268,0,0,1-.256.143c-.054.036-.113.065-.178.107-.036.012-.065.03-.1.042a.843.843,0,0,0-.107.048.617.617,0,0,1-.125.059c-.048.024-.089.042-.1.059a.935.935,0,0,1-.137.054,1.393,1.393,0,0,1-.143.054.275.275,0,0,1-.042.042c-.018.006-.036.012-.059.018-.054.018-.1.018-.149.03-.071.018-.137.042-.2.059s-.125.036-.178.054-.125.036-.2.059a1.834,1.834,0,0,1-.244.059.829.829,0,0,0-.339.059c-.006,0-.006.006-.012.012l-.167.042H68.2l.184-.048v-.006a.819.819,0,0,1,.345-.059,2.1,2.1,0,0,0,.244-.059c.071-.024.137-.036.2-.059a1.194,1.194,0,0,0,.178-.054c.059-.018.119-.042.2-.059a1.316,1.316,0,0,0,.149-.03l-.1.065h0a1.1,1.1,0,0,1,.113-.065.178.178,0,0,1,.059-.024h0l.03-.03.143-.054c.048-.018.1-.036.137-.054.006-.018.048-.036.1-.059a.406.406,0,0,0,.125-.065A.794.794,0,0,0,70.4,15.5l.071-.03.036-.03c.059-.036.125-.071.184-.107a1.592,1.592,0,0,0,.256-.137l.25-.178Zm-7.441-.059.018.012h.006Zm7.471-.113h0Zm.1-.065-.03.018h-.006l.018-.006.018-.012Zm-7.917-.22.161.19-.131-.155-.03-.036Zm8.221,0h0v.018c-.036.036-.048.059-.071.077s-.042.048-.083.1h.006l.077-.089a.717.717,0,0,1,.071-.077C71.624,14.57,71.63,14.558,71.624,14.558Zm-7.8-.1.006.006h0Zm-.642-.1c.012-.012.054.006.113.071l.006.006.054.012a1.41,1.41,0,0,1,.113.107c.059.048.119.1.161.131s.071.077.071.1a.248.248,0,0,0,.036.048c.059.048.107.1.167.143-.012.018-.036.024-.048.036l-.155-.167h-.006l.149.161.012.006a.33.33,0,0,1,.048-.036,4.238,4.238,0,0,0,.41.321.647.647,0,0,1-.083.03c.018.006.018.012.036.018-.048,0-.083.006-.125.006-.024-.018-.054-.036-.077-.054l-.071-.054c-.065-.054-.131-.1-.184-.155l-.167-.149c-.059-.054-.107-.107-.161-.155l-.071-.071a.913.913,0,0,0-.071-.077c.006-.012.048.018.03-.036a1.062,1.062,0,0,1,.083.077c.036.024.065.054.1.071.042.048.077.083.119.131l.012.006-.131-.137-.089-.071c-.03-.024-.059-.054-.089-.077-.03-.042-.065-.077-.1-.119s-.059-.083-.089-.119Zm9.559-.69h-.006l-.048.113Zm-.048-.547-.113.167a.962.962,0,0,0-.059.107c-.018.036-.036.065-.054.1-.042.059-.089.119-.137.178s-.071.113-.113.178l-.107.143L72.106,14l-.012.006L72.106,14l.107-.143c.036-.059.077-.119.113-.178a1.293,1.293,0,0,0,.137-.178c.018-.03.042-.059.059-.1a.832.832,0,0,1,.054-.1,1.211,1.211,0,0,1,.119-.173v-.006Zm.452-.059c-.018.059-.036.113-.059.173a.942.942,0,0,1-.1.178,1.887,1.887,0,0,1-.1.19.492.492,0,0,1-.1.113l.059-.119c.018-.042.036-.077.054-.119s.03-.048.042-.065L73,13.327c.012-.03.03-.054.048-.089l.1-.173Zm-.286-.369-.1.184-.006.006.107-.19Zm.059-.422-.125.345a4.655,4.655,0,0,1-.268.547l-.036.059h-.006a.555.555,0,0,1-.089.161.758.758,0,0,0-.089.167c-.03.042-.071.083-.107.131a.934.934,0,0,0-.083.149,6.157,6.157,0,0,1-.512.577c-.059.048-.113.1-.173.143l-.012.012-.012.006-.071.059-.054.065-.214.161-.036.018-.089.077-.012.006-.018.018a1.426,1.426,0,0,1-.173.113c-.054.036-.113.071-.167.107l-.018.012-.119.071L70.4,15.3l-.03.024c-.036.024-.077.042-.119.065l-.113.042-.244.125a4.691,4.691,0,0,1-.571.214l-.4.1.321-.059a.253.253,0,0,1,.065-.012.418.418,0,0,1,.19-.071.614.614,0,0,0,.125-.042.844.844,0,0,1,.2-.1c.071-.03.143-.054.22-.083l.143-.054.059-.036.059-.018.077-.042.018-.018.054-.048c.036-.024.077-.048.119-.071l.131-.065.048-.03c.059-.036.113-.071.173-.113A.192.192,0,0,1,71,14.945a.374.374,0,0,1,.083-.054l.214-.161c.024-.059.107-.113.149-.143.059-.048.113-.1.173-.143a5.409,5.409,0,0,0,.512-.577l.071-.125v-.006c.036-.054.077-.113.113-.178a.331.331,0,0,0,.036-.048l.048-.065.012-.03a1.221,1.221,0,0,0,.1-.155c.065-.119.119-.244.178-.369s.107-.25.173-.393a1.161,1.161,0,0,1,.048-.161l.018-.065Zm.476-.381-.012.006m.054-.268v.012l.012.012c.012.012.024.03.036.042.012-.006.018-.012.03-.012v-.006l-.018.012c-.018-.006-.03-.024-.048-.042Zm-.042-.494h-.006v.024a.611.611,0,0,1-.006.107.253.253,0,0,1-.012.065c-.036.059-.071.113-.107.167a1.02,1.02,0,0,1-.024.143l-.03.048c-.012.071-.024.137-.042.208-.018.054-.03.107-.048.167s-.03.107-.054.161a.952.952,0,0,1-.03.125.62.62,0,0,1-.036.131l.03-.042.024-.1a1.008,1.008,0,0,1,.024-.131c.018-.048.03-.107.048-.161a1.64,1.64,0,0,0,.048-.161c.018-.071.03-.137.048-.208l.024-.054a1.022,1.022,0,0,0,.024-.143l.107-.161c-.024.113-.042.22-.071.333-.006.1-.065.244-.048.28-.042.119-.077.238-.119.351l-.024.036-.012.059a.222.222,0,0,1-.03.089.972.972,0,0,0-.119.268c-.018.042-.036.089-.059.137a.4.4,0,0,1-.036.071.321.321,0,0,1-.042.077c-.042.071-.077.149-.119.208a1.484,1.484,0,0,1-.125.208,1.707,1.707,0,0,1-.161.274,2.988,2.988,0,0,0-.178.268,1.522,1.522,0,0,1-.119.155c-.042.048-.077.1-.125.143-.012.024-.03.042-.042.065a.519.519,0,0,0-.048.059.756.756,0,0,0-.071.059l-.125.131.006.018c-.054.054-.089.1-.125.131a1.119,1.119,0,0,0-.137.1l-.107.083-.1.077h.012l.113-.083.113-.089c.042-.03.089-.059.131-.1a1.38,1.38,0,0,0,.125-.131v-.018c.042-.042.077-.083.119-.131.024-.018.048-.042.071-.059a.264.264,0,0,0,.048-.065.417.417,0,0,0,.048-.059c.042-.048.083-.1.125-.149s.077-.1.119-.149c.048-.083.113-.178.173-.268a1.537,1.537,0,0,0,.161-.274,1.335,1.335,0,0,0,.131-.208l.113-.208a.882.882,0,0,0,.048-.077c.012-.024.018-.054.03-.071a1.454,1.454,0,0,0,.059-.143,1.477,1.477,0,0,1,.119-.262.616.616,0,0,0,.048-.178c.048-.119.077-.232.119-.357-.018-.036.042-.173.054-.28s.048-.22.065-.333l.018-.059h-.012a.612.612,0,0,0,.006-.107v-.012Zm.1-.089-.054.208h0Zm.042-.042a.433.433,0,0,0-.03.054l-.006.119v.113l-.048.131v.018l.054-.149c.006-.089,0-.131.012-.232l.018-.042v-.012Zm-.19-.19-.03.071-.006.1-.018-.048-.006.006.018.048c-.006.024-.006.048-.012.071a.089.089,0,0,1,.018.059h.018l-.012-.03a.314.314,0,0,0,.006-.071A1.894,1.894,0,0,0,73.343,10.817Zm.363-.113h.012c0,.077-.006.137-.006.184s.006.089.006.125a1.08,1.08,0,0,1-.012.232c0,.024-.006.065-.012.131a1.515,1.515,0,0,0-.042.19c-.006.054-.006.107-.012.161-.03.1-.036.173-.065.291-.024.089-.042.178-.059.256-.054.054-.048-.024-.113.054a.063.063,0,0,1,.012-.03.545.545,0,0,1,.018-.184c.018-.059.048-.125.065-.19l.048-.03c.042-.173.03-.208.059-.327.006-.054.024-.107.03-.155s.018-.113.024-.161.018-.107.024-.155a1.156,1.156,0,0,0,.012-.143.872.872,0,0,1,0-.125c.006-.018.006-.042.012-.059V10.7ZM62.273,8.687Zm.262-.619a.743.743,0,0,0-.1.178.449.449,0,0,1-.083.065h0l-.006.167h0l.006-.167a.8.8,0,0,0,.083-.065,1.47,1.47,0,0,1,.1-.178v0Zm.048-.381a.515.515,0,0,1-.059.042c-.03.059-.054.107-.089.2l.018.012h0l-.012-.012c.036-.089.059-.137.089-.2l.054-.036V7.688Zm.333-.244h0l-.024.089a.2.2,0,0,1-.018.048c-.167.22-.262.518-.4.732-.018.054-.036.113-.054.173s-.036.125-.054.184a1.8,1.8,0,0,0-.113.381c-.024.089-.054.173-.077.262-.012.065-.018.131-.03.2l-.018.1a.594.594,0,0,0-.012.1,2.174,2.174,0,0,0-.042.274c-.006.054-.006.1-.012.161s.012.089.018.178l.012-.1v-.036c.006-.059.012-.125.018-.178.006-.089.024-.178.036-.268l.036-.042.042-.3V9.348l.042-.125.024-.1-.006.018a.045.045,0,0,0-.024-.012,1.787,1.787,0,0,0-.065.19v.1c-.012.071-.018.131-.03.2v.036a.359.359,0,0,1-.048.048.463.463,0,0,0,.012-.1l.018-.1c.018-.065.024-.131.036-.2.03-.089.054-.173.077-.262a1.354,1.354,0,0,1,.113-.381c.018-.059.03-.119.048-.184s.042-.113.059-.173a8.122,8.122,0,0,1,.4-.732C62.886,7.551,62.9,7.533,62.916,7.444ZM63,7.01h0l.018.018Zm.779-.619h-.006l-.03.042-.012.012-.006.006a.124.124,0,0,1-.024.036c-.089.1-.178.2-.268.315-.024.03-.048.054-.071.083a1.038,1.038,0,0,1-.077.089l-.321.363.327-.363c.03-.03.048-.059.077-.1s.048-.054.071-.083c.089-.113.178-.208.268-.315l.024-.036.042-.054h.006Zm.113-.3a.079.079,0,0,0-.042.018l-.024.006-.012.012c-.012.012-.03.024-.048.042a1.347,1.347,0,0,0-.119.077l-.083.089-.077.1a.341.341,0,0,0-.054.048h0l-.048.054a.766.766,0,0,1-.083.107l-.137.149.024.024h0l-.018-.024c.042-.048.1-.1.131-.143.089-.1.1-.131.137-.167.024-.024.042-.036.054-.048l.077-.1.083-.089a1.347,1.347,0,0,0,.119-.077.34.34,0,0,0,.048-.042.135.135,0,0,0,.054-.024h.018V6.088Zm6.281-.779a1.4,1.4,0,0,1,.22.1.225.225,0,0,1,.1.077c-.083-.042-.155-.071-.214-.1A.5.5,0,0,1,70.173,5.309Zm-.72-.321a.472.472,0,0,1,.173.042,2.264,2.264,0,0,1,.244.119A1.252,1.252,0,0,1,69.453,4.987Zm-2.611-.03c-.018,0-.042.006-.089.012-.065.012-.131.018-.2.03s-.131.03-.19.042c-.03.006-.054.018-.083.024s-.059.018-.1.03l-.208.042-.042.012c-.083.03-.178.059-.262.1s-.178.065-.262.1c-.065.03-.125.059-.184.083a.5.5,0,0,0-.119.048c-.107.042-.2.089-.3.137-.048.03-.1.065-.143.1s-.1.059-.137.089a1.257,1.257,0,0,1-.22.167c-.071.048-.137.107-.208.161l-.2.178.018.018c.012,0,.024-.012.042-.03l.036-.024.131-.113c.071-.059.143-.107.208-.167a.893.893,0,0,0,.22-.167l.143-.089c.048-.03.089-.059.143-.089.1-.048.2-.1.3-.143a.74.74,0,0,0,.119-.059l.184-.083c.083-.036.173-.065.256-.1s.178-.059.268-.1l.107-.018.054-.018.732-.161-.012-.006Zm1.553-.089c.03,0,.059.006.089.006a.255.255,0,0,1,.125.048.69.69,0,0,0-.1-.018,1.591,1.591,0,0,1-.2-.036h.077Zm.506-.036c.059.006.113.006.173.012.077.024.149.059.22.089-.107-.012-.2-.036-.268-.048s-.119-.036-.125-.054Zm-1.451,0a4.72,4.72,0,0,0-.506.024c-.113.006-.226.03-.345.048-.054.012-.113.03-.167.048s-.1.036-.143.048c-.065.012-.131.018-.2.03a5.689,5.689,0,0,0-.755.291c-.1.036-.19.083-.274.119a.722.722,0,0,1-.083.03.759.759,0,0,0-.071.042c-.048.024-.1.054-.143.071a1.274,1.274,0,0,1-.214.113,1.245,1.245,0,0,0-.167.131,2.41,2.41,0,0,0-.476.375l-.1.083-.1.089v.006a5.866,5.866,0,0,0-.749.88c-.065.089-.119.155-.155.208a.51.51,0,0,0-.065.125c-.024.042-.048.077-.071.119-.042.083-.089.167-.131.244l-.143.22v.006c-.018.042-.03.089-.048.131a.172.172,0,0,1-.036.059l-.006.012-.042.125a.427.427,0,0,0-.006.077.329.329,0,0,1-.012.107,1.568,1.568,0,0,1-.059.178c-.018.065-.042.119-.059.178-.018.1-.036.173-.059.262s-.018.161-.036.238a1.6,1.6,0,0,0-.018.238c.012-.059.018-.113.03-.161V9.609l.006-.065c.018-.077.024-.161.036-.238l.012.006V9.306h-.012c.024-.1.042-.178.059-.262a1.57,1.57,0,0,1,.059-.178l.059-.178h-.006a.229.229,0,0,0,.012-.107.574.574,0,0,1,.048-.208.382.382,0,0,1,.036-.059h0l.048-.131c.048-.077.089-.149.143-.226s.083-.161.131-.238c.018-.036.048-.083.065-.119a.714.714,0,0,1,.071-.125c.036-.054.089-.119.149-.208a5.622,5.622,0,0,1,.755-.88c.065-.065.125-.125.2-.184a2.6,2.6,0,0,1,.476-.375c.059-.042.1-.089.167-.131a1.565,1.565,0,0,0,.22-.113c.042-.018.089-.048.137-.071.024-.012.048-.03.071-.042s.054-.018.083-.03c.089-.042.184-.083.274-.119a6.024,6.024,0,0,1,.755-.291c.071-.012.131-.018.2-.03.042-.012.089-.03.143-.048A1.641,1.641,0,0,1,66.6,4.9c.119-.018.244-.042.351-.048.167-.012.333-.024.5-.024l.4.012Z" transform="translate(-30.49 -1.9)" fill="#0c5adb" fill-rule="evenodd"/>
  </g>
</svg>
