<svg xmlns="http://www.w3.org/2000/svg" xmlns:xlink="http://www.w3.org/1999/xlink" width="50" height="50" viewBox="0 0 50 50">
  <defs>
    <clipPath id="clip-path">
      <rect id="Ret칙ngulo_61" data-name="Ret칙ngulo 61" width="50" height="50" fill="none"/>
    </clipPath>
  </defs>
  <g id="Grupo_de_m치scara_13" data-name="Grupo de m치scara 13" clip-path="url(#clip-path)">
    <g id="Camada_x0020_1" transform="translate(0 6.571)">
      <g id="_1812290671168" transform="translate(0 0)">
        <g id="Grupo_60" data-name="Grupo 60">
          <path id="Caminho_88" data-name="Caminho 88" d="M30.374.262a7.11,7.11,0,0,1-2.447.122c-.821-.07-1.678-.1-1.9-.087-1.328.157-6.414,2.919-7.987,4.317a6.378,6.378,0,0,1-1.783,1.153,3.09,3.09,0,0,0-1.5,1.118A2.543,2.543,0,0,1,12.95,8a19.271,19.271,0,0,0-6.1,2.726l-1.94,1.293L4.7,13.3a3.046,3.046,0,0,1-1.066,2.15,23.631,23.631,0,0,0-2.272,3.233C-.018,20.972-.07,21.059.035,21.881c.315,2.307,1.555,4.806,2.779,5.575a31.632,31.632,0,0,1,2.8,2.482l2.08,2.027h1c.559,0,1.608.052,2.359.1,1.293.122,1.328.14,1.468.647.122.437.332.594,1.7,1.153a22.982,22.982,0,0,0,4.072,1.153c2.237.437,2.587.559,3.443,1.153a2.508,2.508,0,0,0,1.975.682A24.755,24.755,0,0,0,32.3,34.6a30.371,30.371,0,0,1,3.233-1.241,23.275,23.275,0,0,0,2.359-.874,30.361,30.361,0,0,1,3.478-1.031,23.256,23.256,0,0,0,3.408-1.031,5.811,5.811,0,0,0,1.52-2.132c1.4-2.639,2.534-4.3,3.146-4.666L50,23.314l-.122-2.359c-.052-1.293-.262-3.443-.454-4.771-.28-2.045-.419-2.534-.839-3.163a12.653,12.653,0,0,1-1.066-2.482,17.808,17.808,0,0,0-1.381-3.146l-.821-1.381-2.1-.21c-2.761-.28-4.107-.734-5.523-1.818-3.705-2.849-5.435-4-5.925-3.985a12.77,12.77,0,0,0-1.4.262h0Zm.769,11.622a44.479,44.479,0,0,1-4.02,4.561c-.926.891-1.136,1.014-1.992,1.118l-.961.122,1.223-1.293a46.888,46.888,0,0,0,4.369-5.558l1.031-1.468.437.891.437.891-.524.734Zm-7.83-.454a16.838,16.838,0,0,1,3.792,1.136c.07.052-.157.437-.524.839l-.664.734-1.4-.35c-3.565-.874-8.546.07-12.233,2.324l-.7.437-.751-.647-.751-.647,1.014-.717a20.384,20.384,0,0,1,7.672-3.093,10.765,10.765,0,0,1,4.544-.017h0Zm18.42,1A45.75,45.75,0,0,1,37,17.721c-3.076,2.953-4.719,3.985-8.109,5.121a20.333,20.333,0,0,1-6.816,1.311c-3.757,0-9-1.87-11.517-4.124l-1.031-.909.891-.489a4.586,4.586,0,0,1,1.049-.472,10.181,10.181,0,0,1,1.538.8A16.314,16.314,0,0,0,21.2,21.6a16.835,16.835,0,0,0,9.088-1.783,27.722,27.722,0,0,0,8.843-7.253l1.084-1.381.751.542a2.564,2.564,0,0,1,.769.7h0Zm-9.42.786a1.6,1.6,0,0,1,.507.4c0,.052-.664.786-1.451,1.643-1.433,1.538-1.451,1.555-1.922,1.293l-.489-.245,1.346-1.7a21.69,21.69,0,0,1,1.433-1.7,4.488,4.488,0,0,1,.577.3h0Zm2.744,1.276c.419,0,.28.175-1.276,1.748a14.4,14.4,0,0,1-1.922,1.748,1.532,1.532,0,0,1-.542-.245c-.315-.245-.262-.332,1.241-1.852a6.191,6.191,0,0,1,1.8-1.486,2.529,2.529,0,0,0,.7.087h0Zm5.855,5.732,2.569,1.573-.856.717a5.837,5.837,0,0,1-.961.717c-.052,0-1.258-.717-2.656-1.59l-2.552-1.608.751-.751c.419-.437.839-.751.944-.7.087.035,1.328.769,2.761,1.643h0Z" transform="translate(0 0)" fill="#0c5adb"/>
        </g>
      </g>
    </g>
  </g>
</svg>
