<svg xmlns="http://www.w3.org/2000/svg" width="30" height="30" viewBox="0 0 30 30">
  <g id="Grupo_365" data-name="Grupo 365" transform="translate(-1191 -848)">
    <rect id="Retângulo_173" data-name="Retângulo 173" width="30" height="30" transform="translate(1191 848)" fill="#fff"/>
    <path id="earth-americas-solid" d="M3.381,11.309l.551.961a3.752,3.752,0,0,0,2.227,1.746l3.393.967a2.341,2.341,0,0,1,1.7,2.256v2.338a1.7,1.7,0,0,0,.938,1.518,1.7,1.7,0,0,1,.938,1.518V24.9a1.375,1.375,0,0,0,1.752,1.324,2.762,2.762,0,0,0,1.916-1.98l.164-.656a3.74,3.74,0,0,1,1.775-2.344l.475-.27a2.809,2.809,0,0,0,1.418-2.443v-.486a2.813,2.813,0,0,0-.826-1.986l-.229-.229A2.813,2.813,0,0,0,17.584,15H15.059a3.785,3.785,0,0,1-1.863-.492l-2.021-1.154a1.216,1.216,0,0,1-.539-.656,1.179,1.179,0,0,1,.6-1.436l.346-.176A1.621,1.621,0,0,1,12.826,11l1.359.451A1.118,1.118,0,0,0,15.4,9.674l-.8-.955a1.871,1.871,0,0,1,.018-2.42l.92-1.072a1.877,1.877,0,0,0,.205-2.15L15.6,2.83c-.205-.012-.4-.018-.609-.018A12.192,12.192,0,0,0,3.381,11.309ZM27.188,15a12.165,12.165,0,0,0-1.547-5.947l-1.5.6a1.881,1.881,0,0,0-1.084,2.332l.99,2.971a1.871,1.871,0,0,0,1.324,1.225l1.705.428A12.2,12.2,0,0,0,27.182,15ZM30,15A15,15,0,1,1,15,0,15,15,0,0,1,30,15Z" transform="translate(1191 848)" fill="#0c5adb"/>
  </g>
</svg>
