<svg xmlns="http://www.w3.org/2000/svg" width="30" height="30" viewBox="0 0 30 30">
  <g id="Grupo_364" data-name="Grupo 364" transform="translate(-778 -856)">
    <rect id="Retângulo_172" data-name="Retângulo 172" width="30" height="30" transform="translate(778 856)" fill="#fff"/>
    <path id="book-bible-solid" d="M5.625,0A5.626,5.626,0,0,0,0,5.625v18.75A5.626,5.626,0,0,0,5.625,30h18.75a1.875,1.875,0,0,0,0-3.75V22.5a1.873,1.873,0,0,0,1.875-1.875V1.875A1.873,1.873,0,0,0,24.375,0H5.625Zm0,22.5h15v3.75h-15a1.875,1.875,0,1,1,0-3.75ZM12.187,4.688a.94.94,0,0,1,.938-.938H15a.94.94,0,0,1,.938.938V7.5H18.75a.94.94,0,0,1,.938.937v1.875a.94.94,0,0,1-.937.938H15.938v6.562A.94.94,0,0,1,15,18.75H13.125a.94.94,0,0,1-.937-.938V11.25H9.375a.94.94,0,0,1-.938-.938V8.437A.94.94,0,0,1,9.375,7.5h2.812Z" transform="translate(780 856)" fill="#0c5adb"/>
  </g>
</svg>
