<svg xmlns="http://www.w3.org/2000/svg" width="30" height="30" viewBox="0 0 30 30">
  <g id="Grupo_363" data-name="Grupo 363" transform="translate(-369 -841)">
    <rect id="Retângulo_171" data-name="Retângulo 171" width="30" height="30" transform="translate(369 841)" fill="#fff"/>
    <path id="cross-solid" d="M10.313,0A2.813,2.813,0,0,0,7.5,2.813V7.5H2.813A2.813,2.813,0,0,0,0,10.313v1.875A2.813,2.813,0,0,0,2.813,15H7.5V27.188A2.813,2.813,0,0,0,10.313,30h1.875A2.813,2.813,0,0,0,15,27.188V15h4.687A2.813,2.813,0,0,0,22.5,12.188V10.313A2.813,2.813,0,0,0,19.688,7.5H15V2.813A2.813,2.813,0,0,0,12.188,0Z" transform="translate(373 841)" fill="#0c5adb"/>
  </g>
</svg>
