<svg xmlns="http://www.w3.org/2000/svg" width="42.628" height="30" viewBox="0 0 42.628 30">
  <g id="XMLID_822_" transform="translate(0 -45.917)">
    <path id="XMLID_823_" d="M40.967,48.492c-1.539-1.829-4.38-2.575-9.805-2.575H11.466c-5.55,0-8.439.794-9.972,2.742C0,50.557,0,53.355,0,57.227v7.38c0,7.5,1.773,11.31,11.466,11.31h19.7c4.705,0,7.312-.658,9-2.273,1.73-1.655,2.468-4.358,2.468-9.037v-7.38C42.628,53.144,42.512,50.33,40.967,48.492Zm-13.6,13.444L18.424,66.61a1.375,1.375,0,0,1-2.012-1.219V56.073a1.375,1.375,0,0,1,2.009-1.22L27.364,59.5a1.375,1.375,0,0,1,0,2.439Z" transform="translate(0 0)" fill="#014e82"/>
  </g>
</svg>
